<svg width="196" height="70" viewBox="0 0 196 70" fill="none" xmlns="http://www.w3.org/2000/svg">
<rect width="196" height="70" rx="16.8" fill="white"/>
<path d="M40.1225 35.8141C40.1242 35.6839 40.1296 35.5541 40.1388 35.4249C40.3905 31.8645 41.4016 27.092 37.834 26.9804V26.9804C35.4831 26.7337 33.204 28.3872 32.006 28.3872C30.7848 28.3872 28.9403 27.0049 26.9541 27.0458C24.3651 27.1294 21.9516 28.6014 20.692 30.8648C17.9844 35.5526 20.004 42.4421 22.5977 46.2313C23.8953 48.0868 25.4119 50.1594 27.3964 50.0859C29.3382 50.0054 30.0635 48.8477 32.4075 48.8477C34.7298 48.8477 35.4102 50.0859 37.4349 50.0392C39.5187 50.0054 40.8315 48.1755 42.0836 46.3024V46.3024C43.669 44.0544 41.9829 41.1706 40.7879 38.6929C40.3604 37.8065 40.1236 36.8243 40.1225 35.8141Z" fill="#282828"/>
<path d="M36.2982 24.4884C36.3161 24.4669 36.3339 24.4452 36.3516 24.4235C38.1386 22.2237 35.2377 19.7952 33.3679 21.925V21.925V21.925C31.4694 24.0856 34.4082 26.7674 36.2447 24.5539C36.2627 24.5322 36.2805 24.5104 36.2982 24.4884Z" fill="#282828"/>
<path d="M55.6086 29.1992H58.9266C62.0346 29.1992 64.2466 27.1972 64.2466 24.3832C64.2466 21.5692 62.0346 19.5812 58.9266 19.5812H55.6086V29.1992ZM57.0226 27.9112V20.8692H59.0106C61.2366 20.8692 62.7906 22.3252 62.7906 24.3832C62.7906 26.4552 61.2366 27.9112 59.0106 27.9112H57.0226ZM69.4927 29.3672C71.5507 29.3672 73.2867 27.6312 73.2867 25.5732C73.2867 23.5152 71.5507 21.7932 69.4927 21.7932C67.4207 21.7932 65.6707 23.5152 65.6707 25.5732C65.6707 27.6312 67.4207 29.3672 69.4927 29.3672ZM69.4927 28.1632C68.1627 28.1632 67.0567 26.9872 67.0567 25.5732C67.0567 24.1732 68.1627 22.9972 69.4927 22.9972C70.7947 22.9972 71.9007 24.1732 71.9007 25.5732C71.9007 26.9872 70.7947 28.1632 69.4927 28.1632ZM76.4416 29.1992H77.7156L79.4656 23.8232L81.2016 29.1992H82.4756L84.9116 21.9612H83.4976L81.8456 27.3512L80.0536 21.9612H78.8776L77.0856 27.3512L75.4196 21.9612H74.0056L76.4416 29.1992ZM89.9927 21.7932C89.0127 21.7932 88.1307 22.2972 87.6967 23.0112V21.9612H86.3107V29.1992H87.6967V24.5092C87.8087 23.6552 88.6767 22.9972 89.6847 22.9972C90.6647 22.9972 91.3507 23.7532 91.3507 24.8312V29.1992H92.7087V24.5932C92.7087 22.9552 91.5887 21.7932 89.9927 21.7932ZM94.6916 29.1992H96.0636V19.4132H94.6916V29.1992ZM101.512 29.3672C103.57 29.3672 105.306 27.6312 105.306 25.5732C105.306 23.5152 103.57 21.7932 101.512 21.7932C99.4402 21.7932 97.6902 23.5152 97.6902 25.5732C97.6902 27.6312 99.4402 29.3672 101.512 29.3672ZM101.512 28.1632C100.182 28.1632 99.0762 26.9872 99.0762 25.5732C99.0762 24.1732 100.182 22.9972 101.512 22.9972C102.814 22.9972 103.92 24.1732 103.92 25.5732C103.92 26.9872 102.814 28.1632 101.512 28.1632ZM109.966 21.7932C109.168 21.7932 108.258 22.0032 107.222 22.5212L107.726 23.5432C108.356 23.2212 109.056 22.9412 109.77 22.9412C111.212 22.9412 111.632 23.9072 111.632 24.8172V25.0412C110.932 24.8032 110.162 24.6492 109.448 24.6492C107.852 24.6492 106.55 25.6152 106.55 27.0572C106.55 28.4712 107.684 29.3672 109.224 29.3672C110.106 29.3672 111.1 28.9612 111.632 28.2052V29.1992H112.99V24.8172C112.99 23.0252 111.912 21.7932 109.966 21.7932ZM109.49 28.2752C108.58 28.2752 107.88 27.7992 107.88 27.0152C107.88 26.2312 108.692 25.6852 109.658 25.6852C110.372 25.6852 111.044 25.7832 111.632 25.9652V26.9312C111.394 27.8272 110.386 28.2752 109.49 28.2752ZM120.566 19.4132V23.2072C120.006 22.3252 119.11 21.7932 117.99 21.7932C116.086 21.7932 114.658 23.3612 114.658 25.5732C114.658 27.7992 116.086 29.3672 117.99 29.3672C119.11 29.3672 120.006 28.8352 120.566 27.9392V29.1992H121.938V19.4132H120.566ZM118.326 28.1632C116.996 28.1632 116.058 27.0852 116.058 25.5732C116.058 24.0612 116.996 22.9972 118.326 22.9972C119.628 22.9972 120.566 24.0612 120.566 25.5732C120.566 27.0852 119.628 28.1632 118.326 28.1632ZM131.454 29.3672C133.512 29.3672 135.248 27.6312 135.248 25.5732C135.248 23.5152 133.512 21.7932 131.454 21.7932C129.382 21.7932 127.632 23.5152 127.632 25.5732C127.632 27.6312 129.382 29.3672 131.454 29.3672ZM131.454 28.1632C130.124 28.1632 129.018 26.9872 129.018 25.5732C129.018 24.1732 130.124 22.9972 131.454 22.9972C132.756 22.9972 133.862 24.1732 133.862 25.5732C133.862 26.9872 132.756 28.1632 131.454 28.1632ZM140.551 21.7932C139.571 21.7932 138.689 22.2972 138.255 23.0112V21.9612H136.869V29.1992H138.255V24.5092C138.367 23.6552 139.235 22.9972 140.243 22.9972C141.223 22.9972 141.909 23.7532 141.909 24.8312V29.1992H143.267V24.5932C143.267 22.9552 142.147 21.7932 140.551 21.7932ZM152.644 27.8972C152.49 28.0512 152.21 28.1632 151.902 28.1632C151.496 28.1632 151.16 27.7992 151.16 27.2952V23.1372H152.868V21.9612H151.16V19.9732H149.802V21.9612H148.71V23.1372H149.802V27.3932C149.802 28.5552 150.586 29.3672 151.706 29.3672C152.224 29.3672 152.756 29.1712 153.148 28.8492L152.644 27.8972ZM158.243 21.7932C157.249 21.7932 156.367 22.3112 155.933 23.0392V19.4132H154.561V29.1992H155.933V24.7052C155.933 23.7672 156.843 22.9972 157.935 22.9972C158.915 22.9972 159.601 23.7532 159.601 24.8312V29.1992H160.959V24.5932C160.959 22.9552 159.839 21.7932 158.243 21.7932ZM166.26 28.1352C165.014 28.1352 164.132 27.2672 163.95 26.0632H169.648C169.648 23.4732 168.374 21.7932 166.162 21.7932C164.16 21.7932 162.55 23.3892 162.55 25.5592C162.55 27.7852 164.258 29.3672 166.274 29.3672C167.296 29.3672 168.556 28.9332 169.2 28.2472L168.332 27.3512C167.898 27.7992 167.016 28.1352 166.26 28.1352ZM166.218 23.0252C167.464 23.0252 168.15 23.8372 168.304 24.9572H163.964C164.188 23.7812 165.098 23.0252 166.218 23.0252Z" fill="#282828"/>
<path d="M65.6018 48.1992H68.8554L63.3674 34.734H60.1334L54.6454 48.1992H57.8794L58.7418 46.0824H64.7394L65.6018 48.1992ZM59.7414 43.6324L61.7406 38.7128L63.7398 43.6324H59.7414ZM76.6166 37.8308C75.2054 37.8308 74.0294 38.4384 73.2258 39.4772V38.066H70.3642V51.5704H73.2258V46.7684C74.0294 47.8268 75.2054 48.4344 76.6166 48.4344C79.3214 48.4344 81.2814 46.2392 81.2814 43.1228C81.2814 40.026 79.3214 37.8308 76.6166 37.8308ZM75.7934 46.0236C74.4018 46.0236 73.3826 45.0044 73.2258 43.5148V42.7308C73.3826 41.2608 74.4018 40.2416 75.7934 40.2416C77.381 40.2416 78.4982 41.4372 78.4982 43.1228C78.4982 44.828 77.381 46.0236 75.7934 46.0236ZM89.5556 37.8308C88.1444 37.8308 86.9684 38.4384 86.1648 39.4772V38.066H83.3032V51.5704H86.1648V46.7684C86.9684 47.8268 88.1444 48.4344 89.5556 48.4344C92.2604 48.4344 94.2204 46.2392 94.2204 43.1228C94.2204 40.026 92.2604 37.8308 89.5556 37.8308ZM88.7324 46.0236C87.3408 46.0236 86.3216 45.0044 86.1648 43.5148V42.7308C86.3216 41.2608 87.3408 40.2416 88.7324 40.2416C90.32 40.2416 91.4372 41.4372 91.4372 43.1228C91.4372 44.828 90.32 46.0236 88.7324 46.0236ZM106.891 48.4344C110.184 48.4344 112.124 46.7292 112.124 44.1616C112.124 41.6724 110.203 40.81 107.303 40.1632C105.225 39.6928 104.421 39.3792 104.421 38.3992C104.421 37.5956 105.166 36.9488 106.401 36.9488C107.695 36.9488 109.047 37.478 110.243 38.4384L111.752 36.3608C110.38 35.1848 108.675 34.4988 106.479 34.4988C103.539 34.4988 101.501 36.204 101.501 38.6932C101.501 41.3 103.52 42.1036 106.362 42.7504C108.42 43.2208 109.204 43.5148 109.204 44.4752C109.204 45.318 108.459 45.9844 107.009 45.9844C105.303 45.9844 103.853 45.318 102.579 44.2204L100.913 46.2C102.481 47.6504 104.559 48.4344 106.891 48.4344ZM119.451 45.6904C119.255 45.8864 118.863 46.0236 118.471 46.0236C117.942 46.0236 117.51 45.5532 117.51 44.8868V40.3788H119.706V38.066H117.51V35.2828H114.766V38.066H113.375V40.3788H114.766V45.3376C114.766 47.1604 116.021 48.4344 117.804 48.4344C118.628 48.4344 119.549 48.0816 120.137 47.5524L119.451 45.6904ZM126.907 48.4344C129.906 48.4344 132.415 46.004 132.415 43.1228C132.415 40.2416 129.906 37.8308 126.907 37.8308C123.889 37.8308 121.361 40.2416 121.361 43.1228C121.361 46.004 123.889 48.4344 126.907 48.4344ZM126.907 46.0236C125.379 46.0236 124.105 44.6908 124.105 43.1228C124.105 41.5548 125.379 40.2416 126.907 40.2416C128.417 40.2416 129.691 41.5548 129.691 43.1228C129.691 44.6908 128.417 46.0236 126.907 46.0236ZM137.213 39.9476V38.066H134.351V48.1992H137.213V43.358C137.213 41.4568 138.565 40.2416 140.682 40.2416V37.8308C139.134 37.8308 137.879 38.6344 137.213 39.9476ZM147.115 45.906C145.92 45.906 145.038 45.1612 144.705 44.0636H152.015C152.015 40.2416 150.153 37.8308 146.978 37.8308C144.019 37.8308 141.765 40.0456 141.765 43.1032C141.765 46.2196 144.117 48.4344 147.135 48.4344C148.625 48.4344 150.369 47.8072 151.271 46.8664L149.448 45.0044C148.899 45.5336 147.919 45.906 147.115 45.906ZM147.096 40.3592C148.252 40.3592 148.997 41.006 149.271 42.0056H144.744C145.116 40.9864 146.018 40.3592 147.096 40.3592Z" fill="#282828"/>
</svg>
