<svg width="37" height="36" viewBox="0 0 37 36" fill="none" xmlns="http://www.w3.org/2000/svg">
<rect x="0.5" width="36" height="36" rx="18" fill="#464646"/>
<path d="M17.9951 8.7143C18.2017 8.29575 18.7985 8.29575 19.0051 8.7143L21.6791 14.1324C21.7611 14.2986 21.9196 14.4138 22.1031 14.4405L28.0823 15.3093C28.5442 15.3764 28.7286 15.9441 28.3944 16.2698L24.0678 20.4873C23.9351 20.6166 23.8745 20.803 23.9058 20.9857L24.9272 26.9408C25.0061 27.4008 24.5233 27.7516 24.1101 27.5345L18.7621 24.7228C18.5981 24.6366 18.4021 24.6366 18.238 24.7228L12.89 27.5345C12.4769 27.7516 11.994 27.4008 12.0729 26.9408L13.0943 20.9857C13.1256 20.803 13.0651 20.6166 12.9324 20.4873L8.60573 16.2698C8.2715 15.9441 8.45594 15.3764 8.91783 15.3093L14.8971 14.4405C15.0805 14.4138 15.2391 14.2986 15.3211 14.1324L17.9951 8.7143Z" fill="#D9D9D9"/>
</svg>
