<svg width="334" height="297" viewBox="0 0 334 297" fill="none" xmlns="http://www.w3.org/2000/svg">
<path d="M253.819 86.0932C276.046 107.4 287.116 132.44 287.116 161.095C287.116 180.186 281.37 197.877 269.961 214.129C258.552 230.382 243.509 243.096 224.748 252.35C206.072 261.565 186.381 266.192 165.591 266.192C135.168 266.192 109.393 256.938 88.2649 238.47C67.1378 220.001 56.5742 195.156 56.5742 163.973C56.5742 133.373 67.4756 107.4 89.2792 86.0932C111.083 64.7085 138.21 54.0547 170.746 54.0547C204.044 54.0547 231.678 64.7085 253.819 86.0932Z" fill="#808080"/>
<path d="M65.3826 53.2544L66.9158 48.9855L63.221 46.7134L65.7831 42.196L60.3552 39.1479L60.5037 32.1434L53.3028 26.8543L54.4898 20.9574C50.7249 19.1324 46.2694 18.7274 41.9929 20.1745C33.3553 23.0972 28.7224 32.4693 31.6451 41.1069C32.792 44.4961 35.8388 53.5001 57.9267 59.0839L68.2756 61.7002L68.2949 55.1997L65.3826 53.2544Z" fill="#D9D9D9"/>
<path d="M74.1128 12.9027C69.63 13.4383 65.7833 15.7227 63.1721 18.9908L60.7964 24.5171L66.754 31.1755L65.1664 37.9994L69.8504 42.0999L66.413 45.9928L69.5608 48.9769L67.1816 52.8387L69.6309 55.342L68.2737 61.6992L76.4863 54.8814C94.0183 40.3298 92.8906 30.8922 92.4662 27.3386C91.3844 18.2844 83.167 11.821 74.1128 12.9027Z" fill="#D9D9D9"/>
<path d="M180.964 157.763C180.964 157.763 174.961 152.955 173.907 151.976C172.853 150.997 165.677 147.91 165.124 147.571C164.571 147.233 159.15 145.463 157.945 144.371C156.741 143.28 155.837 145.802 157.494 147.797C159.15 149.792 163.065 151.411 163.931 151.976C164.797 152.54 168.599 155.74 168.599 155.74L168.441 170.524C168.441 170.524 172.477 174.036 173.794 174.714C175.112 175.391 178.976 176.257 179.227 176.445C179.478 176.633 200.216 208.669 205.413 215.445C210.611 222.221 214.45 225.497 215.693 225.61C216.935 225.723 222.092 220.528 222.092 220.528V201.442C222.092 201.442 193.758 173.923 187.221 167.693C184.184 161.462 182.996 159.089 180.964 157.763Z" fill="#EBAC8C"/>
<path d="M222.093 220.527V201.441C222.093 201.441 213.703 193.292 205 184.859C206.356 193.887 209.602 213.734 210.949 221.944C213.279 224.337 214.952 225.542 215.694 225.609C216.936 225.722 222.093 220.527 222.093 220.527Z" fill="#DC907A"/>
<path d="M180.965 157.763C180.965 157.763 174.962 152.955 173.908 151.976C173.797 151.873 173.615 151.745 173.384 151.602C172.198 152.372 169.425 153.996 166.836 154.272C167.791 155.06 168.599 155.74 168.599 155.74L168.441 170.524C168.441 170.524 170.741 172.525 172.436 173.798C174.587 172.562 175.17 169.623 176.166 166.886C176.919 168.621 178.85 169.769 178.85 169.769L183.218 160.113C182.486 159.028 181.795 158.305 180.965 157.763Z" fill="#DC907A"/>
<path d="M186.61 166.657C186.61 166.657 182.996 160.559 182.347 159.373C181.697 158.187 179.834 156.719 178.931 156.437C178.027 156.154 176.729 155.929 175.515 154.968C174.301 154.008 173.821 153.415 173.2 153.5C172.578 153.585 171.873 155.448 172.409 156.832C172.945 158.216 174.3 159.204 175.148 159.543C175.994 159.881 177.124 161.124 177.124 161.124C177.124 161.124 175.882 164.822 177.887 168.464C179.891 172.106 183.816 171.429 184.973 170.61C186.13 169.791 187.203 168.267 186.61 166.657Z" fill="#EBAC8C"/>
<path d="M166.218 163.867C165.171 164.286 164.644 166.206 164.757 166.771C164.87 167.335 165.494 168.879 166.218 169.368C166.941 169.858 169.688 171.229 170.705 171.259C171.721 171.288 172.399 170.912 172.813 170.422C173.227 169.933 173.453 169.037 173.491 168.619C173.528 168.201 173.265 167.147 173.265 167.147L166.218 163.867Z" fill="#EBAC8C"/>
<path d="M166.215 163.867C166.044 163.935 165.889 164.047 165.746 164.183C165.778 164.246 165.809 164.312 165.847 164.361C166.262 164.915 169.241 167.472 170.295 168.08C171.349 168.688 172.052 168.56 172.76 168.662C173.062 168.705 173.281 168.689 173.489 168.586C173.512 168.15 173.263 167.148 173.263 167.148L166.215 163.867Z" fill="#DC907A"/>
<path d="M166.943 159.559C165.701 160.069 165.211 161.161 165.136 161.763C165.061 162.366 165.362 163.871 165.852 164.361C166.341 164.85 169.654 166.958 170.783 167.41C171.912 167.862 172.59 167.636 173.305 167.636C174.02 167.636 174.247 167.41 174.811 166.318C175.376 165.226 175.225 163.869 174.811 163.625C174.397 163.382 166.943 159.559 166.943 159.559Z" fill="#EBAC8C"/>
<path d="M174.805 163.625C174.391 163.382 166.937 159.559 166.937 159.559C166.795 159.617 166.665 159.684 166.543 159.757C166.772 160.165 167.229 160.664 168.135 161.398C169.921 162.845 171.271 163.854 172.342 164.373C173.414 164.892 174.603 165.084 175.142 164.736C175.151 164.731 175.161 164.72 175.17 164.714C175.16 164.18 175.019 163.752 174.805 163.625Z" fill="#DC907A"/>
<path d="M169.423 155.777C168.18 154.949 167.39 155.212 167.013 155.777C166.637 156.341 166.147 157.998 166.223 158.713C166.298 159.428 166.411 159.955 168.368 161.16C170.325 162.365 171.794 163.193 172.923 163.569C174.053 163.946 175.257 163.983 175.746 163.569C176.236 163.156 176.805 161.833 176.8 161.311C176.796 160.788 176.143 160.093 175.643 159.817C175.145 159.542 169.423 155.777 169.423 155.777Z" fill="#EBAC8C"/>
<path d="M216.681 253.015C216.079 268.073 217.886 295.504 217.886 295.504H280.377C280.377 295.504 285.572 271.273 285.497 249.283H218.187L216.681 253.015Z" fill="#454545"/>
<path d="M199.039 130.972C200.338 132.78 201.354 133.118 201.975 133.118C202.596 133.118 204.686 133.288 204.968 133.57C205.251 133.852 207.284 141.758 207.284 141.758H227.95V122.781C227.95 122.781 223.377 120.921 221.344 119.623C219.311 118.324 214.116 114.202 212.027 110.531H199.039V130.972Z" fill="#EBAC8C"/>
<path d="M199.039 117.748V130.97C200.338 132.777 201.354 133.115 201.975 133.115C202.596 133.115 204.686 133.285 204.968 133.567C205.069 133.668 205.39 134.732 205.763 136.062C205.763 136.058 206.041 123.685 204.476 117.749H199.039V117.748Z" fill="#DC907A"/>
<path d="M183.402 127.266C183.402 127.266 187.091 127.661 189.313 130.334H191.698V122.781H183.402V127.266Z" fill="#801D1D"/>
<path d="M190.141 132.742C188.484 131.763 187.016 128.775 189.576 126.316H192.4V132.742H190.141Z" fill="#FF7880"/>
<path d="M181.973 127.264C181.973 127.264 183.29 128.224 183.516 128.224C183.742 128.224 187.657 125.664 187.657 125.664L186.401 124.408H181.973V127.264Z" fill="white"/>
<path d="M167.929 99.1789C168.469 108.039 171.995 113.691 172.842 114.595C173.689 115.498 175.891 116.967 175.891 116.967C175.891 116.967 176.795 118.04 176.682 119.818C176.569 121.597 175.807 124.561 175.807 124.759C175.807 124.957 176.222 125.973 176.692 126.058C177.162 126.143 179.844 125.861 180.042 125.804C180.212 126.736 180.438 127.611 180.663 127.695C180.889 127.78 181.821 127.837 181.99 127.695C182.16 127.554 184.023 125.917 184.983 125.832C185.943 125.747 188.993 126.397 190.884 128.543C190.517 130.83 189.416 132.552 189.416 132.552C189.416 132.552 189.613 133.597 190.037 133.766C190.46 133.935 191.449 133.766 191.449 133.766C191.449 133.766 194.47 135.94 194.809 136.025C195.148 136.11 196.221 136.081 196.954 135.629C197.688 135.177 203.467 126.416 204.107 124.872C204.747 123.329 204.784 122.237 204.784 121.033C204.784 119.828 204.032 114.143 204.032 114.143L212.69 110.266C215.024 106.05 219.014 93.0246 209.152 83.1616C199.289 73.2985 187.845 75.1052 179.563 79.0962C171.28 83.0859 167.515 92.3844 167.929 99.1789Z" fill="#EBAC8C"/>
<path d="M180.103 125.08C179.742 125.355 179.143 124.967 179.501 124.741C179.858 124.516 180.686 124.553 180.686 124.553C180.686 124.553 180.423 124.835 180.103 125.08Z" fill="#DC907A"/>
<path d="M173.219 112.553C174.983 113.32 175.511 113.211 175.896 113.211C177.817 111.831 179.931 108.394 180.691 105.98C178.925 107.91 175.513 111.791 173.219 112.553Z" fill="#262626"/>
<path d="M173.414 113.26C173.414 113.26 175.012 113.785 175.916 113.536C175.68 114.313 174.1 114.288 173.414 113.26Z" fill="#262626"/>
<path d="M181.245 116.918C181.559 117.194 181.826 117.261 182.082 117.141C182.339 117.021 184.7 114.683 183.996 112.588C182.249 111.326 179.871 111.744 179.871 111.744L181.245 116.918Z" fill="white"/>
<path d="M177.828 112.921C178.258 114.353 179.589 115.946 180.57 116.672C181.551 117.398 181.782 116.952 182.034 116.597C182.285 116.242 182.564 114.134 180.37 111.678C179.248 111.377 177.828 112.921 177.828 112.921Z" fill="#454545"/>
<path d="M176.449 114.048C176.449 114.048 177.258 112.451 179.27 111.514C181.281 110.577 183.652 111.749 184.35 112.191C184.724 113.305 184.468 114.275 184.468 114.275C184.468 114.275 183.992 113.2 183.608 112.75C182.22 111.612 179.303 111.664 176.449 114.048Z" fill="#262626"/>
<path d="M179.159 112.012C178.525 112.562 177.646 113.704 177.486 115.172C177.212 114.225 177.277 113.447 177.824 112.734L179.159 112.012Z" fill="#262626"/>
<path d="M180.921 112.246C181.57 112.16 182.142 112.447 182.201 112.887C182.259 113.327 181.781 113.754 181.133 113.84C180.484 113.926 179.911 113.639 179.852 113.199C179.794 112.758 180.273 112.332 180.921 112.246Z" fill="white"/>
<path d="M182.574 97.2422C182.574 97.2422 186.903 103.077 187.355 103.642C187.807 104.206 188.823 104.357 189.5 104.32C190.178 104.282 193.755 103.906 193.755 103.906C193.755 103.906 197.406 108.31 197.594 108.31C197.782 108.31 199.514 107.708 199.514 107.708L199.175 105.299C199.175 105.299 199.363 101.835 201.321 101.722C203.278 101.609 206.704 102.55 207.57 105.637C208.436 108.724 206.102 112.737 205.613 113.045C207.532 114.71 209.302 115.174 209.302 115.174C209.302 115.174 209.377 114.183 209.302 113.881C211.447 114.935 214.572 115.65 216.567 114.596C215.476 113.204 214.308 111.321 214.308 111.321C216.153 108.649 217.96 104.206 218.336 102.211C218.713 100.216 218.562 97.7687 218.562 97.7687C219.955 98.3713 220.632 98.0319 220.632 98.0319C220.632 98.0319 219.089 95.6601 218.938 94.0415C219.126 90.3525 217.134 85.4582 215.495 83.9903C217.169 83.2752 217.658 82.8988 217.658 82.8988C217.658 82.8988 215.249 80.8658 214.533 79.8493C213.818 78.8328 212.275 76.2729 210.995 75.1813C209.715 74.0898 206.176 72.6594 204.332 72.3581C205.198 70.5514 206.026 69.7231 206.026 69.7231C206.026 69.7231 202.375 69.9863 200.869 71.1159C200.003 68.4428 198.873 67.2387 197.707 66.2598C197.858 69.6856 197.707 70.1751 197.707 70.1751C197.707 70.1751 194.168 68.4434 192.738 68.4059C191.307 68.3684 185.51 69.4224 183.778 70.0625C180.089 69.8743 178.922 69.1211 178.922 69.1211C178.922 69.1211 178.357 72.0199 179.863 73.2245C176.926 73.6384 170.677 76.0477 169.586 76.9517C168.494 77.855 165.068 84.6311 164.654 85.0455C164.24 85.4594 162.207 86.664 160.965 86.514C161.191 88.3588 163.6 88.8858 163.6 88.8858C163.6 88.8858 161.906 92.7255 161.793 95.0217C161.68 97.3179 162.734 100.179 162.734 100.179C162.734 100.179 162.358 101.421 161.68 101.723C162.772 102.4 163.788 101.873 163.788 101.873C163.788 101.873 164.089 105.713 162.47 106.767C164.164 107.37 165.859 105.983 165.859 105.983C166.913 108.047 167.898 108.762 167.898 108.762C167.892 109.892 168.155 110.155 168.155 110.155C168.155 110.155 169.586 108.612 169.699 108.461C171.054 107.746 172.183 105.983 172.183 105.983C172.183 105.983 172.371 106.541 172.861 107.068C173.124 105.864 173.84 104.019 173.877 102.927C175.346 104.207 175.627 104.508 176.955 104.584C176.776 103.53 176.955 101.986 176.955 101.986C176.955 101.986 178.57 100.594 179.235 98.8619C179.561 101.083 179.235 101.309 179.235 101.309C179.235 101.309 181.934 100.103 182.574 97.2422Z" fill="#111111"/>
<path opacity="0.41" d="M285.496 249.283H218.188L216.682 253.015C216.577 255.619 216.545 258.593 216.563 261.732C221.432 263.34 234.98 265.628 251.491 264.061V295.504H252.645V263.947C269.02 262.252 280.847 258.582 285.33 256.888C285.444 254.35 285.505 251.802 285.496 249.283Z" fill="#454545"/>
<path d="M224.66 121.346C217.958 127.509 206.288 140.233 206.288 140.233C204.932 144.901 203.473 167.187 205.784 184.202C210.052 198.809 218.183 222.161 218.183 222.161C218.183 222.161 214.66 254.825 214.615 256.029C214.57 257.234 230.983 261.45 252.064 259.342C273.145 257.234 286.848 251.813 287.3 251.361C287.752 250.91 286.397 224.859 279.921 194.592C273.447 164.326 258.84 140.007 252.516 132.742C241.787 125.826 231.022 121.996 224.66 121.346Z" fill="#626262"/>
<path opacity="0.55" d="M273.745 216.652C275.552 210.705 276.229 206.865 276.004 204.832C275.778 202.799 270.059 175.921 260.609 157.852L226.82 174.867C234.217 193.99 236.547 206.525 237.415 208.954C238.125 211.311 230.038 246.454 227.077 259.143C233.652 259.942 242.359 260.312 252.061 259.342C254.535 259.095 256.902 258.8 259.163 258.475C262.367 249.457 272.235 221.621 273.745 216.652Z" fill="#454545"/>
<path opacity="0.62" d="M241.23 206.412C234.303 213.489 223.311 221.997 221.956 222.825C220.6 223.654 218.191 222.16 218.191 222.16L216.898 218.414C216.898 218.414 219.32 220.19 220.901 219.588C222.482 218.986 241.23 206.412 241.23 206.412Z" fill="black"/>
<path opacity="0.62" d="M238.661 217.479C238.661 217.479 235.047 218.758 234.068 219.812C233.089 220.866 225.184 226.287 226.087 226.137C226.991 225.986 232.863 222.598 235.198 221.318C237.531 220.039 238.661 217.479 238.661 217.479Z" fill="black"/>
<path d="M231.181 264.855C228.245 268.526 224.607 273.608 224.054 274.229C223.502 274.85 224.054 279.424 224.054 279.424H232.028L231.181 264.855Z" fill="#DC8F7A"/>
<path d="M236.483 187.213L246.987 206.412C243.486 217.028 235.659 252.829 232.344 260.847C227.9 271.011 222.931 279.619 222.705 280.51C222.479 281.401 223.157 285.636 223.552 286.144C223.947 286.652 226.827 286.652 226.827 286.652C226.827 286.652 227.956 288.854 228.747 289.081C229.538 289.306 232.022 288.346 232.022 288.346C232.022 288.346 232.7 289.758 233.885 289.871C235.071 289.984 236.709 289.419 236.991 289.363C237.273 289.306 238.12 288.177 238.12 288.177C238.12 288.177 239.871 289.845 240.435 289.886C241 289.928 243.71 289.533 244.218 289.138C244.726 288.742 245.347 286.088 245.63 285.241C245.912 284.395 245.818 281.91 245.978 280.95C246.139 279.99 243.88 280.272 243.371 281.232C244.614 277.223 244.952 272.536 245.009 270.729C245.066 268.922 245.066 263.727 245.066 263.727C245.066 263.727 260.5 232.135 264.415 223.076C268.331 214.017 269.535 207.693 269.535 206.413C269.535 205.133 263.061 181.643 263.061 181.643H236.408L236.483 187.213Z" fill="#EBAC8C"/>
<path d="M263.063 181.643H236.41L236.485 187.214L241.87 197.056C246.023 196.13 256.778 193.852 266.127 192.902C264.568 187.104 263.063 181.643 263.063 181.643Z" fill="#DC8F7A"/>
<path d="M235.851 286.033C235.287 285.863 233.875 289.872 233.875 289.872C235.061 289.985 236.698 289.42 236.98 289.364C237.263 289.308 238.11 288.179 238.11 288.179C238.11 288.179 236.417 286.202 235.851 286.033Z" fill="#DC8F7A"/>
<path d="M226.814 286.653C226.814 286.653 225.685 283.322 225.403 283.096C225.164 282.905 224.402 284.731 224.035 286.392C224.975 286.653 226.814 286.653 226.814 286.653Z" fill="#DC8F7A"/>
<path d="M228.734 289.082C229.525 289.308 232.01 288.348 232.01 288.348C232.01 288.348 230.315 285.525 229.807 285.298C229.299 285.073 228.734 289.082 228.734 289.082Z" fill="#DC8F7A"/>
<path d="M243.376 281.232C243.093 282.248 242.641 284.489 242.98 285.289C243.319 286.089 243.65 286.032 244.219 286.314C244.408 286.408 244.809 286.477 245.26 286.527C245.411 285.999 245.541 285.521 245.634 285.241C245.917 284.394 245.822 281.91 245.982 280.95C246.143 279.99 243.884 280.272 243.376 281.232Z" fill="#DC8F7A"/>
<path d="M241.531 196.435L240.731 194.972C240.731 194.972 251.837 186.529 264.265 186.025L265.101 189.102C265.101 189.102 269.125 185.972 269.012 185.182C268.898 184.391 263.93 164.402 258.622 153.221C253.313 142.04 240.439 134.586 229.936 138.313C219.546 151.188 222.392 165.869 222.663 167.45C222.934 169.031 237.841 196.434 237.841 196.434H241.531V196.435Z" fill="#454545"/>
<path d="M258.352 153.345C263.649 164.501 268.615 184.511 268.717 185.223L269.288 185.141C269.186 184.425 264.194 164.304 258.873 153.097C253.321 141.403 240.149 134.526 230.016 137.982C226.806 134.386 222.202 130.695 221.067 129.801C224.24 126.669 227.09 123.88 228.909 122.106C228.681 122.052 228.461 122.003 228.239 121.953C223.224 126.849 211.33 138.513 205.526 144.669C205.49 144.978 205.453 145.297 205.418 145.629C208.929 141.864 215.198 135.598 220.653 130.21C221.639 130.983 226.301 134.698 229.551 138.328C220.466 149.744 221.483 162.436 222.35 167.382L222.37 167.499C222.646 169.109 236.97 195.452 237.579 196.572L238.087 196.296C232.104 185.298 223.132 168.528 222.94 167.401L222.919 167.282C222.062 162.395 221.052 149.824 230.101 138.558C239.983 135.11 252.902 141.864 258.352 153.345Z" fill="black"/>
<path d="M125.134 266.118C125.134 266.118 127.543 278.064 128.898 295.506H62.4922C62.4922 295.506 62.4922 280.122 67.4615 265.516L125.134 266.118Z" fill="#454545"/>
<path d="M97.256 270.561H96.1016V295.507H97.256V270.561Z" fill="#252525"/>
<path d="M96.7525 283.028C109.476 281.255 110.564 272.283 110.573 272.193L109.425 272.07C109.388 272.403 108.386 280.24 96.5938 281.884L96.7525 283.028Z" fill="#252525"/>
<path d="M132.66 151.981C127.846 153.637 119.941 160.714 118.812 170.276H99.9141V159.359C99.9141 159.359 104.281 157.369 104.281 153.282C104.281 149.195 104.281 140.715 104.281 140.715H132.66V151.981Z" fill="#EBAC8C"/>
<path d="M104.28 153.282C104.28 149.195 104.28 140.715 104.28 140.715H132.659V151.98C130.017 152.889 126.446 155.434 123.573 159.124C118.743 155.062 116.287 147.825 116.287 147.825V145.938H113.68C113.494 150.776 108.927 158.68 99.9141 159.964V159.358C99.9129 159.359 104.28 157.37 104.28 153.282Z" fill="#DC907A"/>
<path d="M64.8086 275.364C65.4816 272.166 66.3498 268.821 67.4748 265.516L125.147 266.118C125.147 266.118 125.853 269.623 126.716 275.6C114.481 279.67 79.6282 280.007 64.8086 275.364Z" fill="#252525"/>
<path d="M98.5276 157.852C107.337 160.788 119.307 167.65 119.307 167.65C123.034 173.606 127.778 187.139 127.778 187.139C131.768 194.367 134.704 205.661 134.629 208.296C134.554 210.931 127.928 228.474 119.722 235.927C123.336 248.049 126.498 262.956 127.552 272.142C116.108 276.509 79.6674 276.96 64.6094 272.142C66.4161 258.439 68.8254 247.898 68.8254 247.898C68.8254 247.898 69.3005 209.413 75.15 191.28C81.9261 170.274 98.5276 157.852 98.5276 157.852Z" fill="#626262"/>
<path opacity="0.41" d="M93.1094 202.481L123.865 192.475C124.475 196.276 130.195 202.107 134.343 205.9C134.537 206.957 134.635 207.787 134.621 208.294C134.546 210.929 127.92 228.472 119.714 235.926C121.729 242.684 123.602 250.307 125.049 257.323C122.936 257.609 120.961 257.835 120.015 257.835C117.455 257.835 106.462 245.488 104.354 241.723C102.246 237.959 95.6959 217.329 95.6959 217.329L93.1094 202.481Z" fill="#454545"/>
<path d="M84.1063 175.621C83.1528 179.808 80.6707 182.783 78.6319 184.613C76.3196 184.922 73.8952 184.993 71.554 184.848C73.9501 181.866 75.9311 177.001 76.0131 172.007C74.8708 177.109 71.0778 181.565 66.3001 184.12C63.283 183.439 60.7628 182.343 59.3359 180.891C72.361 177.654 68.5213 158.605 69.5003 147.312C70.4792 136.019 77.7823 126.608 86.7419 124.395L92.6896 124.354V135.35C89.979 138.22 89.8283 144.601 91.7107 156.196C93.593 167.791 89.1507 179.687 82.5253 183.828C82.3902 183.866 82.2517 183.9 82.1143 183.936C83.2053 181.309 84.0267 178.137 84.1063 175.621Z" fill="#111111"/>
<path d="M89.6727 119.979C83.8001 122.779 84.7034 132.703 92.0064 138.876H93.4622V119.979H89.6727Z" fill="#454545"/>
<path d="M139.018 138.875C139.018 138.875 138.171 140.908 138.679 142.546H134.086V138.875H139.018Z" fill="#801D1D"/>
<path d="M139.873 143.139C139.685 141.841 137.455 140.147 133.699 141.672V144.918H139.12L139.873 143.139Z" fill="#FF7880"/>
<path d="M139.882 138.217C139.882 138.217 139.769 139.402 139.619 139.535C139.468 139.666 135.516 140.062 135.516 140.062V138.217H139.882Z" fill="white"/>
<path d="M104.586 108.083C114.563 101.56 125.993 105.449 132.444 113.203C136.547 118.135 136.735 122.878 137.262 126.04C137.789 129.202 137.676 130.406 139.333 131.329C140.989 132.251 142.118 132.157 142.476 132.195C142.834 132.232 142.872 133.719 142.269 134.566C141.667 135.413 140.895 135.959 140.726 136.279C140.556 136.599 141.234 137.295 141.328 137.371C141.422 137.446 140.745 138.368 140.161 138.519C139.578 138.669 137.865 138.462 137.074 138.744C136.283 139.027 134.778 141.304 134.872 142.189C134.966 143.073 136.811 143.318 137.281 143.356C137.752 143.393 139.747 142.641 139.822 142.641C139.897 142.641 140.575 142.904 140.651 143.638C140.726 144.372 139.916 144.711 139.898 145.05C139.879 145.389 141.046 148.626 141.084 149.153C141.121 149.68 140.443 151.525 138.053 152.127C135.663 152.73 130.674 153.859 126.12 152.918C121.565 151.977 116.143 148.213 115.089 146.518C112.981 148.363 109.781 148.853 106.807 148.551C103.834 148.25 96.1536 144.128 94.0081 131.479C91.8625 118.831 96.2667 113.523 104.586 108.083Z" fill="#EBAC8C"/>
<path d="M139.477 136.096C139.632 135.899 139.815 135.362 139.575 135.348C139.335 135.334 138.799 135.983 138.672 136.181C138.926 136.166 139.477 136.096 139.477 136.096Z" fill="#E69288"/>
<path d="M134.842 122.779C134.584 124.425 134.259 124.76 134.08 125.043C132.179 125.805 128.876 126.228 126.758 125.664C128.989 125.268 133.22 124.103 134.842 122.779Z" fill="#262626"/>
<path d="M135.272 123.254C135.272 123.254 134.915 124.666 134.312 125.211C134.99 125.399 135.705 124.233 135.272 123.254Z" fill="#262626"/>
<path d="M134.311 130.67C134.368 131.028 134.292 131.254 134.086 131.386C133.878 131.517 131.074 132.157 129.87 130.67C129.758 128.807 131.168 127.264 131.168 127.264L134.311 130.67Z" fill="white"/>
<path d="M132.972 126.322C133.819 127.301 134.365 129.014 134.44 130.068C134.515 131.122 134.082 131.084 133.706 131.103C133.33 131.122 131.659 130.347 130.883 127.603C131.184 126.642 132.972 126.322 132.972 126.322Z" fill="#262626"/>
<path d="M134.439 125.832C134.439 125.832 132.896 125.681 131.277 126.717C129.659 127.752 129.414 130.029 129.414 130.745C130.054 131.535 130.883 131.799 130.883 131.799C130.883 131.799 130.318 130.952 130.167 130.462C129.978 128.919 131.371 126.811 134.439 125.832Z" fill="#262626"/>
<path d="M131.691 126.868C132.388 126.661 133.63 126.548 134.778 127.113C134.214 126.473 133.614 126.159 132.84 126.228L131.691 126.868Z" fill="#5C372F"/>
<path d="M131.045 128.266C130.681 128.7 130.625 129.253 130.92 129.5C131.215 129.747 131.749 129.595 132.112 129.161C132.476 128.726 132.532 128.174 132.237 127.927C131.943 127.68 131.409 127.831 131.045 128.266Z" fill="white"/>
<path d="M123.937 102.438C127.852 101.61 131.466 101.309 131.578 101.535C131.692 101.76 133.461 108.612 130.882 119.228C128.304 129.844 122.958 137.702 115.354 136.182C113.321 135.114 110.949 134.512 109.444 135.566C107.938 136.62 108.992 141.476 109.669 142.549C110.347 143.622 112.116 144.6 113.999 144.921C112.945 148.553 111.213 152.287 109.105 153.281C106.997 154.276 104.437 154.84 102.78 154.614C101.124 154.389 97.4346 151.892 96.9076 151.201C96.0042 148.403 95.3641 144.036 95.3641 144.036C95.3641 144.036 92.2586 141.984 89.9434 135.35C87.6281 128.715 87.971 124.324 89.0966 119.115C91.0724 109.967 102.253 96.151 123.937 102.438Z" fill="#111111"/>
<path d="M95.3632 144.036C95.3378 141.138 95.3632 137.637 95.3632 137.637L93.9727 142.721L95.3632 144.036Z" fill="#464646"/>
<path d="M115.352 136.182C117.949 138.257 118.817 142.267 118.101 143.848C120.942 141.194 120.66 135.984 116.142 135.766L115.352 136.182Z" fill="#464646"/>
<path d="M125.78 113.021C125.852 122.072 124.004 131.152 115.323 135.692C115.248 135.729 115.293 135.86 115.378 135.839C117.64 135.435 119.713 134.113 121.241 132.377C125.479 127.585 126.4 120.853 126.073 114.692L125.928 113.012C125.919 112.925 125.778 112.924 125.78 113.021Z" fill="#464646"/>
<path d="M119.067 119.745C119.015 125.248 118.596 131.148 114.582 135.282C114.523 135.336 114.586 135.445 114.664 135.415C119.015 133.737 119.671 128.063 119.68 123.999C119.653 122.561 119.516 121.13 119.214 119.726C119.196 119.643 119.061 119.654 119.067 119.745Z" fill="#464646"/>
<path d="M178.784 174.867C179.499 175.018 181.269 175.545 182.172 175.545C183.076 175.545 183.189 176.524 182.85 177.201C182.511 177.879 181.232 179.46 178.558 178.82H177.203V174.867H178.784Z" fill="#DC907A"/>
<path d="M159.547 183.675C159.547 183.675 171.443 172.984 172.271 172.382C173.099 171.779 174.567 171.215 175.283 171.177C175.998 171.14 182.096 169.859 182.849 169.634C183.602 169.408 189.738 169.031 190.943 168.692C192.148 168.353 192.223 169.295 192.035 170.048C191.847 170.8 191.395 171.817 189.249 172.532C187.103 173.247 183.903 173.473 183.301 173.737C182.699 174 179.16 175.845 179.16 175.845C179.16 175.845 179.462 176.183 179.499 176.485C179.537 176.786 179.311 177.84 179.311 177.84C179.311 177.84 180.516 178.97 180.478 179.459C180.441 179.948 180.177 181.755 180.177 181.755C180.177 181.755 181.043 182.922 181.005 183.486C180.968 184.051 180.553 184.842 180.553 184.842C180.553 184.842 181.193 186.272 181.005 186.762C180.817 187.251 179.989 188.606 179.499 188.907C179.01 189.208 178.031 189.321 178.031 189.321C178.031 189.321 174.342 192.032 171.368 193.123C168.394 194.215 166.286 194.29 166.286 194.29C166.286 194.29 138.165 233.629 131.502 240.293C124.838 246.956 121.564 249.779 120.208 249.214C118.853 248.65 111.738 245.6 109.028 238.485C106.317 231.371 102.026 219.4 101.913 218.27C101.8 217.14 99.6172 207.428 99.6172 207.428H122.919L124.725 216.237C124.726 216.238 158.993 184.172 159.547 183.675Z" fill="#EBAC8C"/>
<path d="M124.391 216.774C121.866 220.216 120.396 224.261 119.499 228.397C119.358 228.995 119.264 229.604 119.094 230.214C119.083 230.256 119.039 230.281 118.997 230.269C118.391 226.556 119.591 222.521 121.695 219.407C122.419 218.37 123.254 217.399 124.292 216.664C124.36 216.616 124.45 216.708 124.391 216.774Z" fill="#DC907A"/>
<path d="M124.34 214.359L122.919 207.43H99.6172C99.6172 207.43 101.8 217.142 101.913 218.272C101.971 218.851 103.127 222.281 104.606 226.443C112.163 220.55 124.34 214.359 124.34 214.359Z" fill="#DC907A"/>
<path d="M107.672 172.758C110.759 172.758 121.525 179.91 123.934 191.129C123.633 196.324 123.934 200.766 123.934 200.766C123.934 200.766 126.118 211.231 126.042 211.683C125.967 212.135 124.339 214.358 124.339 214.358L123.783 212.361C123.783 212.361 111.072 214.916 102.407 220.038L103.112 222.161C103.112 222.161 100.82 221.245 100.293 220.869C99.7661 220.492 95.6251 210.629 95.1732 209.575C92.9895 202.95 91.2578 196.475 92.0111 187.892C98.2607 174.188 107.672 172.758 107.672 172.758Z" fill="#454545"/>
<g opacity="0.59">
<path d="M135.581 81.1056C135.786 80.8355 135.973 80.5463 136.131 80.2323C137.523 77.4668 136.41 74.0958 133.644 72.7036C130.879 71.3113 127.508 72.4242 126.115 75.1902C125.957 75.5042 125.835 75.8263 125.741 76.1519C123.079 75.1158 120.016 76.2535 118.706 78.8568C117.313 81.6222 118.426 84.9932 121.192 86.3861C121.551 86.5667 121.921 86.6914 122.295 86.7895L121.244 91.2919L123.252 88.9247L121.328 97.1674L126.803 90.7129L126.097 93.7358L129.088 90.2102C129.389 90.452 129.71 90.6748 130.069 90.8555C132.834 92.2478 136.205 91.1343 137.597 88.3688C138.909 85.765 137.999 82.6272 135.581 81.1056Z" fill="white"/>
<path d="M104.671 82.6542C104.713 82.421 104.737 82.1821 104.735 81.9367C104.72 79.7756 102.956 78.0359 100.795 78.0509C98.6337 78.0659 96.894 79.8299 96.909 81.991C96.9107 82.2363 96.9378 82.4753 96.9823 82.7073C94.9989 82.9105 93.4583 84.592 93.4728 86.6261C93.4878 88.7872 95.2518 90.527 97.4129 90.512C97.6934 90.5102 97.963 90.4698 98.2262 90.4115L99.006 93.543L99.5001 91.4332L100.928 97.1656L102.275 91.4136L102.799 93.5158L103.535 90.374C103.799 90.4283 104.069 90.4652 104.349 90.4629C106.511 90.4479 108.25 88.6839 108.235 86.5228C108.221 84.4898 106.657 82.8303 104.671 82.6542Z" fill="white"/>
</g>
<path d="M312.313 55.5558C319.283 39.2425 311.709 20.3677 295.395 13.3978C279.082 6.42793 260.207 14.0023 253.237 30.3156C246.267 46.6289 253.842 65.5037 270.155 72.4736C286.468 79.4435 305.343 71.8691 312.313 55.5558Z" fill="#808080"/>
<path d="M258.072 59.1113L247.926 75.0666L265.35 67.5089L258.072 59.1113Z" fill="#808080"/>
<mask id="mask0_311_62829" style="mask-type:luminance" maskUnits="userSpaceOnUse" x="247" y="10" width="68" height="66">
<path d="M282.763 10.8262C265.024 10.8262 250.643 25.2072 250.643 42.9465C250.643 49.8579 252.833 56.2535 256.547 61.4928L247.914 75.0669L263.218 68.4288C268.633 72.5887 275.407 75.0669 282.763 75.0669C300.503 75.0669 314.884 60.6859 314.884 42.9465C314.884 25.2072 300.503 10.8262 282.763 10.8262Z" fill="white"/>
</mask>
<g mask="url(#mask0_311_62829)">
<path d="M324.879 89.2844L275.69 103.477L261.082 52.8496L268.788 41.1878L307.757 29.9434L324.879 89.2844Z" fill="#FFF6F0"/>
<path d="M271.91 50.1637C272.473 50.275 272.955 50.5258 273.358 50.9154C273.76 51.3058 274.05 51.8089 274.228 52.4262C274.406 53.0428 274.428 53.6205 274.294 54.1587C274.159 54.6977 273.884 55.1635 273.466 55.5576C273.049 55.9517 272.517 56.2421 271.87 56.4287L269.72 57.049L267.945 50.8975L270.095 50.2772C270.741 50.0906 271.346 50.0525 271.91 50.1637ZM272.869 54.4312C273.12 53.9773 273.153 53.4302 272.968 52.789C272.783 52.1486 272.462 51.6984 272.006 51.4387C271.549 51.1797 270.998 51.1431 270.352 51.329L269.479 51.5805L270.651 55.6427L271.524 55.3911C272.169 55.2053 272.618 54.885 272.869 54.4312Z" fill="#808080"/>
<path d="M275.5 48.7188L277.275 54.8702L276.041 55.2263L274.266 49.0748L275.5 48.7188Z" fill="#808080"/>
<path d="M282.24 46.7734L281.759 53.5758L280.261 54.008L276.23 48.5082L277.552 48.1267L280.656 52.5293L280.928 47.1526L282.24 46.7734Z" fill="#808080"/>
<path d="M285.925 52.0006C285.366 51.8692 284.876 51.605 284.455 51.2071C284.035 50.81 283.738 50.3084 283.563 49.7038C283.39 49.1044 283.376 48.5252 283.52 47.9646C283.664 47.4047 283.938 46.9196 284.341 46.5105C284.745 46.1007 285.235 45.8133 285.811 45.6469C286.392 45.4789 286.961 45.461 287.519 45.5931C288.076 45.7245 288.562 45.9902 288.98 46.3888C289.397 46.7874 289.693 47.2861 289.865 47.8855C290.04 48.4908 290.056 49.0731 289.915 49.6321C289.774 50.192 289.502 50.6757 289.098 51.0855C288.695 51.4945 288.205 51.7819 287.629 51.9484C287.052 52.1141 286.485 52.132 285.925 52.0006ZM288.217 50.3129C288.45 50.0643 288.602 49.7605 288.671 49.4037C288.739 49.0462 288.715 48.6625 288.596 48.2512C288.477 47.8399 288.294 47.5025 288.047 47.2405C287.799 46.9778 287.51 46.8053 287.181 46.7217C286.852 46.6381 286.501 46.6508 286.131 46.7576C285.761 46.8643 285.457 47.0412 285.22 47.2876C284.982 47.5339 284.829 47.8347 284.759 48.1885C284.69 48.5423 284.714 48.9253 284.833 49.3366C284.952 49.7478 285.135 50.086 285.383 50.3517C285.633 50.6167 285.923 50.7929 286.256 50.878C286.589 50.9631 286.941 50.9519 287.311 50.8451C287.681 50.7399 287.983 50.5622 288.217 50.3129Z" fill="#808080"/>
<path d="M294.845 49.8L292.796 47.7943L292.215 47.9623L292.907 50.3591L291.673 50.7152L289.898 44.5637L292.207 43.8979C292.683 43.7605 293.113 43.7269 293.496 43.7978C293.879 43.8687 294.196 44.0225 294.446 44.2591C294.695 44.4958 294.871 44.7906 294.973 45.1429C295.09 45.5483 295.078 45.9484 294.936 46.3417C294.796 46.7351 294.511 47.0613 294.082 47.3188L296.274 49.388L294.845 49.8ZM291.947 47.0374L292.979 46.7396C293.314 46.6425 293.54 46.4903 293.658 46.2813C293.776 46.0723 293.793 45.8237 293.71 45.5356C293.628 45.2534 293.484 45.0586 293.274 44.9504C293.065 44.8421 292.792 44.8361 292.458 44.9332L291.426 45.231L291.947 47.0374Z" fill="#808080"/>
<path d="M296.072 44.3435C296.208 43.7859 296.473 43.3052 296.869 42.9013C297.264 42.4975 297.756 42.2109 298.344 42.0414C299.031 41.8429 299.684 41.8458 300.303 42.0489C300.922 42.2519 301.424 42.6356 301.809 43.1992L300.39 43.6082C300.164 43.3552 299.902 43.1917 299.605 43.1185C299.306 43.0454 298.99 43.0573 298.655 43.1536C298.297 43.2574 298.001 43.4328 297.771 43.6814C297.54 43.9292 297.391 44.2285 297.323 44.5786C297.256 44.9287 297.282 45.3101 297.4 45.7207C297.518 46.126 297.697 46.4604 297.942 46.7239C298.187 46.9874 298.473 47.1628 298.8 47.2494C299.128 47.336 299.47 47.3278 299.829 47.224C300.164 47.127 300.438 46.968 300.65 46.744C300.862 46.5208 300.997 46.2417 301.053 45.9073L302.472 45.4982C302.448 46.1864 302.229 46.7791 301.816 47.277C301.402 47.7749 300.85 48.1235 300.156 48.3235C299.569 48.493 299 48.5131 298.45 48.3817C297.9 48.2511 297.419 47.9869 297.008 47.5898C296.599 47.1927 296.306 46.6918 296.131 46.0864C295.957 45.4825 295.938 44.9011 296.072 44.3435Z" fill="#808080"/>
<path d="M303.833 41.6202L304.278 43.1623L306.349 42.5644L306.631 43.543L304.56 44.1409L305.03 45.7712L307.366 45.0971L307.655 46.1018L304.086 47.1319L302.309 40.9715L305.878 39.9414L306.168 40.9461L303.833 41.6202Z" fill="#808080"/>
<path opacity="0.4" d="M268.788 41.1895L273.946 51.7211L261.082 52.8512L270.311 48.9637L268.788 41.1895Z" fill="#242B2B"/>
<path d="M287.59 19.1515C286.886 18.4111 285.715 18.3812 284.974 19.0858L262.195 40.7455C261.455 41.4501 260.814 42.2511 260.297 43.1207L257.964 47.0463C257.857 47.2262 258.054 47.4337 258.239 47.3359L262.277 45.2033C263.172 44.7308 264.004 44.1314 264.744 43.4275L287.523 21.7678C288.264 21.0632 288.294 19.892 287.59 19.1515Z" fill="#242B2B"/>
<path d="M286.359 23.1799L283.52 20.1934L281.386 22.2221L284.226 25.2086L286.359 23.1799Z" fill="#242B2B"/>
<path d="M284.07 25.0504L281.52 22.3691L278.676 25.0735L283.623 25.4759L284.07 25.0504Z" fill="#242B2B"/>
<path d="M286.578 22.6781L284.027 19.9961L283.662 20.3438L286.212 23.0258L286.578 22.6781Z" fill="#242B2B"/>
<path d="M274.938 34.9676C276.368 32.2759 277.653 31.6377 281.084 29.9313L281.335 29.8066C283.251 28.8527 284.553 27.5957 284.998 26.2655C285.285 25.4101 285.218 24.5517 284.8 23.7134L285.87 23.1797C286.428 24.2964 286.518 25.4952 286.133 26.6454C285.578 28.3026 284.104 29.7656 281.868 30.8785L281.617 31.0032C278.258 32.673 277.245 33.1776 275.994 35.5297L274.938 34.9676Z" fill="#242B2B"/>
</g>
<line x1="0.390625" y1="295.736" x2="315.206" y2="295.736" stroke="#808080" stroke-width="0.968663"/>
<path d="M320.492 102.256C320.973 94.3133 321.061 91.5142 325.38 90.5354C321.723 89.5763 320.58 89.39 320.072 82.1539C319.455 89.747 318.56 89.8889 315.21 90.7157C319.137 91.5396 319.864 94.5858 320.492 102.256Z" fill="white"/>
<path d="M19.2457 248.957C19.7271 241.014 19.8154 238.215 24.1344 237.236C20.4772 236.277 19.3335 236.091 18.8258 228.855C18.2081 236.448 17.3141 236.59 13.9639 237.417C17.8906 238.241 18.618 241.287 19.2457 248.957Z" fill="white"/>
<path d="M331.011 271.849C331.302 266.554 331.356 264.688 333.979 264.035C331.758 263.396 331.064 263.272 330.756 258.448C330.381 263.51 329.837 263.605 327.804 264.157C330.188 264.705 330.629 266.736 331.011 271.849Z" fill="white"/>
<path d="M22.0066 102.767C22.2985 97.4721 22.3525 95.6057 24.9751 94.9531C22.7544 94.3139 22.0599 94.19 21.7517 89.3658C21.377 94.4279 20.8336 94.5231 18.8002 95.0747C21.1843 95.6233 21.6258 97.6543 22.0066 102.767Z" fill="white"/>
<path d="M301.948 192.42C302.24 187.124 302.294 185.258 304.916 184.605C302.696 183.966 302.001 183.842 301.693 179.018C301.318 184.08 300.775 184.175 298.742 184.727C301.126 185.276 301.567 187.307 301.948 192.42Z" fill="white"/>
<path d="M46.2215 162.39C46.5134 157.095 46.5673 155.229 49.1899 154.576C46.9692 153.937 46.2747 153.813 45.9665 148.989C45.5918 154.051 45.0484 154.146 43.015 154.698C45.3992 155.246 45.8407 157.277 46.2215 162.39Z" fill="white"/>
</svg>
