<svg width="304" height="286" viewBox="0 0 304 286" fill="none" xmlns="http://www.w3.org/2000/svg">
<path d="M232.392 110.544C252.156 129.527 262 151.836 262 177.366C262 194.374 256.89 210.136 246.745 224.616C236.6 239.096 223.224 250.423 206.542 258.668C189.935 266.878 172.425 271 153.939 271C126.886 271 103.967 262.755 85.1796 246.301C66.3932 229.847 57 207.712 57 179.93C57 152.667 66.6936 129.527 86.0816 110.544C105.47 91.4918 129.592 82 158.523 82C188.131 82 212.704 91.4918 232.392 110.544Z" fill="#808080"/>
<path d="M75.5116 281.469C53.1447 278.456 42.0039 274.915 42.0039 270.863C42.0039 268.163 47.7874 265.661 59.2679 263.363C70.7484 261.064 85.8865 259.266 104.767 257.958C123.561 256.655 143.376 256 164.297 256C194.913 256 220.851 257.308 242.112 259.921C263.374 262.533 274.004 266.046 274.004 270.456C274.004 274.783 263.033 278.456 241.092 281.469C219.15 284.493 191.851 286 159.11 286C125.603 285.999 97.7931 284.493 75.5116 281.469Z" fill="#292929"/>
<path d="M210.924 34.8628C210.411 31.1369 215.669 28.0723 219.62 27.754C221.504 27.6019 223.461 27.8902 225.246 27.2682C229.114 25.9205 230.659 20.9238 234.432 19.3321C237.253 18.1423 240.502 19.2016 243.236 20.5782C245.971 21.9548 248.674 23.6872 251.73 23.8827C254.388 24.0529 257.274 23.0673 259.599 24.3655C261.332 25.333 262.24 27.3296 263.837 28.5076C265.4 29.6603 267.438 29.9043 269.377 30.0095C271.316 30.1152 273.323 30.1343 275.088 30.943C276.853 31.7512 278.313 33.6183 277.947 35.5246L210.924 34.8628Z" fill="#EBEBEB"/>
<path d="M245.458 70.9769C245.523 71.0115 247.019 68.2862 248.798 64.8904C250.577 61.4936 251.966 58.7131 251.9 58.6785C251.835 58.644 250.339 61.3688 248.56 64.7656C246.781 68.1614 245.392 70.9424 245.458 70.9769Z" fill="#EBEBEB"/>
<path d="M219.473 80.0968C219.539 80.1314 221.035 77.4056 222.813 74.0103C224.593 70.6135 225.982 67.833 225.916 67.7984C225.85 67.7639 224.355 70.4887 222.576 73.8855C220.796 77.2813 219.407 80.0623 219.473 80.0968Z" fill="#EBEBEB"/>
<path d="M193.473 89.2123C193.539 89.2469 195.035 86.5216 196.813 83.1258C198.593 79.7289 199.982 76.9485 199.916 76.9139C199.85 76.8793 198.354 79.6041 196.576 83.0009C194.797 86.3967 193.408 89.1783 193.473 89.2123Z" fill="#EBEBEB"/>
<path d="M167.481 98.3302C167.547 98.3648 169.042 95.6395 170.821 92.2437C172.601 88.8469 173.99 86.0664 173.924 86.0318C173.858 85.9973 172.363 88.722 170.583 92.1189C168.805 95.5147 167.416 98.2962 167.481 98.3302Z" fill="#EBEBEB"/>
<path d="M141.481 107.452C141.547 107.487 143.042 104.762 144.821 101.366C146.601 97.9689 147.99 95.1884 147.924 95.1539C147.858 95.1193 146.363 97.8441 144.583 101.241C142.805 104.636 141.416 107.418 141.481 107.452Z" fill="#EBEBEB"/>
<path d="M115.481 116.57C115.547 116.605 117.042 113.879 118.821 110.484C120.601 107.087 121.989 104.306 121.924 104.272C121.858 104.237 120.363 106.962 118.583 110.359C116.805 113.755 115.416 116.536 115.481 116.57Z" fill="#EBEBEB"/>
<path d="M135.309 88.3312C135.375 88.3658 136.87 85.6405 138.649 82.2447C140.429 78.8478 141.818 76.0674 141.752 76.0328C141.686 75.9982 140.19 78.723 138.412 82.1199C136.632 85.5156 135.243 88.2966 135.309 88.3312Z" fill="#EBEBEB"/>
<path d="M188.731 123.522C188.797 123.556 190.292 120.831 192.071 117.435C193.851 114.038 195.239 111.258 195.174 111.223C195.108 111.189 193.612 113.913 191.833 117.31C190.055 120.706 188.666 123.488 188.731 123.522Z" fill="#EBEBEB"/>
<path d="M222.716 106.879C222.781 106.913 224.277 104.188 226.056 100.792C227.835 97.3954 229.223 94.615 229.158 94.5804C229.092 94.5458 227.597 97.2706 225.818 100.667C224.038 104.063 222.649 106.844 222.716 106.879Z" fill="#EBEBEB"/>
<path d="M163.63 75.1523C163.695 75.1868 165.191 72.4615 166.97 69.0657C168.749 65.6689 170.137 62.8884 170.072 62.8538C170.006 62.8193 168.511 65.5441 166.732 68.9409C164.953 72.3362 163.564 75.1177 163.63 75.1523Z" fill="#EBEBEB"/>
<path d="M132.098 64.2528C132.164 64.2874 133.66 61.5621 135.438 58.1663C137.218 54.7695 138.607 51.989 138.541 51.9544C138.475 51.9199 136.98 54.6447 135.201 58.0415C133.422 61.4373 132.033 64.2188 132.098 64.2528Z" fill="#EBEBEB"/>
<path d="M105.739 62.1137C105.804 62.1482 107.3 59.4229 109.079 56.0271C110.858 52.6303 112.247 49.8498 112.181 49.8153C112.116 49.7807 110.621 52.5055 108.841 55.9023C107.062 59.2981 105.673 62.0791 105.739 62.1137Z" fill="#EBEBEB"/>
<path d="M130.778 37.4689C130.844 37.5035 132.339 34.7776 134.118 31.3824C135.897 27.9855 137.286 25.205 137.22 25.1705C137.155 25.1359 135.66 27.8607 133.88 31.2575C132.101 34.6533 130.713 37.4343 130.778 37.4689Z" fill="#EBEBEB"/>
<path d="M191.934 61.973C192 62.0076 193.495 59.2823 195.274 55.8865C197.054 52.4897 198.443 49.7092 198.377 49.6746C198.311 49.6401 196.816 52.3649 195.037 55.7617C193.257 59.157 191.868 61.9385 191.934 61.973Z" fill="#EBEBEB"/>
<path d="M175.911 41.4408C175.977 41.4754 177.472 38.7501 179.251 35.3543C181.03 31.9575 182.419 29.177 182.353 29.1424C182.288 29.1079 180.792 31.8326 179.013 35.2295C177.234 38.6253 175.845 41.4063 175.911 41.4408Z" fill="#EBEBEB"/>
<path d="M219.473 55.8205C219.539 55.855 221.035 53.1297 222.813 49.7339C224.593 46.3371 225.982 43.5566 225.916 43.5221C225.85 43.4875 224.355 46.2123 222.576 49.6091C220.796 53.0049 219.407 55.7859 219.473 55.8205Z" fill="#EBEBEB"/>
<path d="M89.1709 18.3946C88.5829 14.1235 94.6107 10.6107 99.1396 10.2455C101.3 10.0712 103.543 10.4013 105.589 9.68848C110.023 8.14325 111.793 2.41568 116.119 0.591424C119.353 -0.772773 123.076 0.441853 126.212 2.01958C129.347 3.5973 132.445 5.58351 135.948 5.80735C138.994 6.00231 142.303 4.87227 144.969 6.36077C146.955 7.46966 147.996 9.75862 149.827 11.1089C151.618 12.4303 153.955 12.7098 156.177 12.8305C158.399 12.9517 160.7 12.9739 162.724 13.9002C164.747 14.8265 166.422 16.9664 166.001 19.1522L89.1709 18.3946Z" fill="#F5F5F5"/>
<path d="M42.672 66.347C42.3203 63.7913 45.927 61.6891 48.6368 61.4709C49.9293 61.3667 51.2714 61.5643 52.4958 61.1377C55.1484 60.213 56.2083 56.7862 58.7964 55.6944C60.7315 54.8784 62.9591 55.6046 64.8355 56.549C66.7113 57.4933 68.5655 58.6811 70.6615 58.8158C72.4848 58.9323 74.4643 58.2562 76.0595 59.1469C77.2484 59.8107 77.8709 61.18 78.9664 61.9882C80.0381 62.7789 81.4364 62.946 82.766 63.0182C84.0957 63.0904 85.4727 63.1038 86.6832 63.6583C87.8943 64.2127 88.8959 65.4928 88.6447 66.8008L42.672 66.347Z" fill="#FAFAFA"/>
<path d="M72.6016 217.624L59.6243 237.793C59.6243 237.793 34.765 231.377 32.0039 234.871L70.2066 261.437L91.7161 230.841L72.6016 217.624Z" fill="#3B3B3B"/>
<path opacity="0.3" d="M72.6016 217.624L59.6243 237.793C59.6243 237.793 34.765 231.377 32.0039 234.871L70.2066 261.437L91.7161 230.841L72.6016 217.624Z" fill="black"/>
<path d="M72.5901 244.353C73.1892 245.069 73.1216 246.255 72.4305 246.883C71.7395 247.511 70.5323 247.453 69.921 246.748C69.3098 246.042 69.3471 244.615 70.1038 244.069C70.8605 243.522 72.2748 243.668 72.6989 244.5" fill="#D9D9D9"/>
<path d="M70.2066 261.437L72.3448 258.396L34.8602 233.981C34.8602 233.981 32.6448 233.539 32.0039 234.871L70.2066 261.437Z" fill="#D9D9D9"/>
<path d="M59.1407 237.17C59.0172 237.361 59.891 238.094 60.3916 239.333C60.925 240.558 60.8362 241.695 61.0589 241.74C61.2558 241.823 61.7532 240.515 61.1206 239.027C60.5023 237.532 59.2192 236.97 59.1407 237.17Z" fill="black"/>
<path d="M53.9795 236.04C53.8109 236.191 54.3983 237.07 54.4833 238.3C54.6043 239.527 54.1712 240.491 54.3623 240.613C54.5174 240.764 55.406 239.761 55.2715 238.234C55.1499 236.706 54.1069 235.865 53.9795 236.04Z" fill="black"/>
<path d="M48.3836 239.252C48.5259 239.41 49.4338 238.658 49.6648 237.304C49.9061 235.951 49.3064 234.936 49.1191 235.036C48.9074 235.117 49.0921 236.059 48.8855 237.168C48.7047 238.282 48.2112 239.106 48.3836 239.252Z" fill="black"/>
<path d="M62.6066 232.898C62.5667 233.123 63.6014 233.46 64.6058 234.265C65.627 235.05 66.2009 235.974 66.4094 235.882C66.6108 235.822 66.2904 234.574 65.0935 233.643C63.9051 232.703 62.6169 232.688 62.6066 232.898Z" fill="black"/>
<path d="M65.3082 228.882C65.2522 228.958 65.9098 229.585 67.2283 230.203C67.8853 230.509 68.7095 230.797 69.6573 230.979C70.1316 231.07 70.6354 231.134 71.1611 231.16C71.4159 231.169 71.7042 231.201 72.0516 231.112C72.3933 231.061 72.8553 230.648 72.827 230.179C72.8354 229.749 72.578 229.382 72.3058 229.184C72.031 228.979 71.7627 228.877 71.5195 228.784C71.0221 228.591 70.5254 228.456 70.046 228.366C69.0853 228.19 68.1999 228.198 67.4767 228.297C66.0199 228.501 65.2323 228.988 65.2709 229.068C65.3127 229.189 66.1498 228.904 67.523 228.854C68.207 228.829 69.0242 228.88 69.898 229.079C70.3343 229.181 70.7834 229.32 71.2319 229.504C71.7106 229.679 72.0568 229.916 72.0356 230.169C72.0253 230.264 72.0111 230.294 71.8444 230.354C71.681 230.402 71.4429 230.395 71.1913 230.387C70.7004 230.372 70.2268 230.327 69.7789 230.262C68.8826 230.129 68.0886 229.912 67.4361 229.685C66.1312 229.228 65.3751 228.778 65.3082 228.882Z" fill="black"/>
<path d="M65.3558 229.315C65.4022 229.39 66.2367 228.979 67.1453 227.818C67.5938 227.241 68.0365 226.472 68.3408 225.542C68.4901 225.077 68.6034 224.573 68.6613 224.041C68.6999 223.508 68.7784 222.813 68.1124 222.227C67.7444 221.95 67.2251 222.027 66.9426 222.205C66.6363 222.375 66.4574 222.579 66.2586 222.77C65.8783 223.167 65.5823 223.61 65.361 224.057C64.9157 224.954 64.778 225.862 64.8038 226.602C64.8623 228.111 65.4852 228.876 65.545 228.824C65.6724 228.773 65.2722 227.961 65.3629 226.612C65.4073 225.947 65.5875 225.155 66.0077 224.393C66.2161 224.014 66.4825 223.642 66.812 223.312C67.1537 222.948 67.5339 222.726 67.6568 222.873C67.8486 223.003 67.9593 223.533 67.8904 223.965C67.8486 224.445 67.7611 224.904 67.6433 225.332C67.4027 226.189 67.0475 226.923 66.6865 227.499C65.9588 228.656 65.2741 229.216 65.3558 229.315Z" fill="black"/>
<path d="M76.6016 236.243L63.6243 256.411C63.6243 256.411 38.765 249.995 36.0039 253.489L74.2066 280.055L95.7161 249.459L76.6016 236.243Z" fill="#626262"/>
<path d="M76.5901 262.971C77.1892 263.687 77.1216 264.874 76.4305 265.502C75.7395 266.129 74.5323 266.071 73.921 265.366C73.3098 264.661 73.3471 263.233 74.1038 262.687C74.8605 262.141 76.2748 262.286 76.6989 263.118" fill="#D9D9D9"/>
<path d="M74.2066 280.055L76.3448 277.014L38.8602 252.6C38.8602 252.6 36.6448 252.157 36.0039 253.489L74.2066 280.055Z" fill="#D9D9D9"/>
<path d="M63.1407 255.788C63.0172 255.979 63.891 256.712 64.3916 257.951C64.925 259.176 64.8356 260.313 65.0589 260.358C65.2558 260.442 65.7538 259.133 65.1206 257.645C64.5023 256.151 63.2192 255.589 63.1407 255.788Z" fill="black"/>
<path d="M57.9873 254.657C57.8187 254.808 58.4062 255.687 58.4911 256.917C58.6121 258.144 58.179 259.108 58.3701 259.229C58.5252 259.38 59.4138 258.377 59.2793 256.85C59.1577 255.323 58.1153 254.482 57.9873 254.657Z" fill="black"/>
<path d="M52.3758 257.871C52.5174 258.029 53.4253 257.277 53.657 255.923C53.8983 254.569 53.2985 253.555 53.1119 253.655C52.8996 253.735 53.0849 254.677 52.8784 255.787C52.6969 256.9 52.2034 257.724 52.3758 257.871Z" fill="black"/>
<path d="M66.5988 251.518C66.5589 251.743 67.5936 252.081 68.598 252.886C69.6192 253.67 70.1931 254.595 70.4016 254.502C70.603 254.442 70.2826 253.195 69.0857 252.264C67.8973 251.324 66.6091 251.308 66.5988 251.518Z" fill="black"/>
<path d="M69.3076 247.499C69.2516 247.574 69.9092 248.202 71.2277 248.82C71.8847 249.126 72.7083 249.414 73.6567 249.596C74.131 249.687 74.6348 249.751 75.1605 249.777C75.4153 249.786 75.7036 249.818 76.051 249.729C76.3927 249.678 76.8547 249.265 76.8264 248.796C76.8348 248.366 76.5774 247.999 76.3052 247.801C76.0298 247.596 75.7621 247.494 75.5189 247.401C75.0215 247.208 74.5248 247.073 74.0454 246.982C73.0847 246.807 72.1993 246.815 71.4761 246.914C70.0193 247.118 69.2317 247.605 69.2709 247.685C69.3128 247.805 70.1499 247.521 71.523 247.471C72.207 247.446 73.0242 247.497 73.898 247.696C74.3343 247.798 74.7834 247.937 75.2319 248.121C75.7107 248.296 76.0568 248.533 76.0356 248.785C76.0253 248.88 76.0111 248.91 75.8445 248.97C75.6811 249.018 75.443 249.011 75.1914 249.003C74.7004 248.989 74.2268 248.944 73.779 248.878C72.8827 248.746 72.0886 248.528 71.4362 248.301C70.1306 247.845 69.3752 247.395 69.3076 247.499Z" fill="black"/>
<path d="M69.3565 247.934C69.4028 248.008 70.2374 247.597 71.1459 246.436C71.5944 245.859 72.0371 245.09 72.3415 244.161C72.4908 243.695 72.604 243.192 72.6619 242.66C72.7005 242.127 72.779 241.432 72.1131 240.845C71.745 240.569 71.2257 240.645 70.9426 240.824C70.637 240.994 70.4574 241.198 70.2586 241.389C69.8783 241.786 69.5823 242.229 69.361 242.676C68.9157 243.573 68.778 244.481 68.8038 245.221C68.8623 246.73 69.4852 247.494 69.545 247.442C69.6724 247.392 69.2722 246.579 69.3629 245.231C69.4073 244.566 69.5875 243.773 70.0077 243.012C70.2161 242.632 70.4825 242.261 70.812 241.931C71.1537 241.566 71.5339 241.345 71.6568 241.492C71.8492 241.621 71.9593 242.152 71.8904 242.584C71.8486 243.063 71.7611 243.522 71.6433 243.951C71.4027 244.808 71.0475 245.541 70.6865 246.118C69.9594 247.275 69.2748 247.835 69.3565 247.934Z" fill="black"/>
<path d="M71.457 240.76C71.457 240.76 82.6217 219.795 81.107 221.887C76.983 227.582 101.218 193.04 112.219 175.35C115.759 169.657 121.708 165.897 128.369 165.141C135.105 164.376 141.817 166.77 146.549 171.625L209.075 235.783L238.158 252.717C238.158 252.717 231.002 267.984 207.941 271.186C184.879 274.389 170.683 255.71 159.049 243.817C145.335 229.797 131.606 210.963 131.606 210.963L95.1665 259.06C95.1665 259.06 72.6172 242.131 71.457 240.76Z" fill="#464646"/>
<path d="M116.285 168.94C107.763 170.989 100.259 176.026 95.1343 183.137L63.0039 227.287L78.4984 237.908L116.285 168.94Z" fill="#464646"/>
<path d="M110.912 173.95C110.916 173.954 110.874 174.009 110.79 174.111C110.693 174.226 110.567 174.375 110.41 174.561C110.237 174.762 110.029 175.002 109.786 175.283C109.543 175.571 109.298 175.933 109.002 176.324C107.804 177.879 106.259 180.268 104.375 183.23C100.662 189.194 95.7975 197.596 90.536 206.938C85.2918 216.284 80.5456 224.743 77.0973 230.889C75.3722 233.931 73.9721 236.399 72.9908 238.129C72.5076 238.964 72.1279 239.62 71.857 240.087C71.7322 240.297 71.6325 240.463 71.5546 240.593C71.4851 240.705 71.4465 240.762 71.442 240.759C71.4369 240.757 71.4652 240.694 71.525 240.576C71.5951 240.442 71.6852 240.27 71.7978 240.054C72.0552 239.579 72.4168 238.913 72.8763 238.064C73.835 236.323 75.203 233.837 76.8895 230.773C80.2883 224.621 84.9733 216.116 90.2438 206.772C95.5067 197.429 100.406 189.041 104.174 183.103C106.086 180.153 107.664 177.78 108.898 176.244C109.204 175.858 109.457 175.502 109.71 175.219C109.963 174.945 110.18 174.71 110.362 174.515C110.529 174.338 110.663 174.196 110.766 174.087C110.858 173.992 110.908 173.946 110.912 173.95Z" fill="black"/>
<path d="M130.693 199.228C130.744 199.232 130.725 199.91 130.735 201.001C130.744 202.092 130.8 203.599 130.985 205.252C131.173 206.905 131.455 208.386 131.69 209.452C131.924 210.518 132.094 211.174 132.045 211.189C132.005 211.202 131.756 210.568 131.46 209.508C131.164 208.45 130.842 206.959 130.652 205.289C130.464 203.619 130.446 202.094 130.498 200.996C130.549 199.899 130.652 199.225 130.693 199.228Z" fill="black"/>
<path d="M134.955 197.875C135.002 197.893 134.767 198.602 134.417 199.755C134.065 200.908 133.615 202.509 133.222 204.303C132.832 206.097 132.573 207.741 132.412 208.935C132.25 210.128 132.167 210.872 132.117 210.868C132.075 210.865 132.073 210.116 132.176 208.908C132.278 207.702 132.501 206.039 132.895 204.231C133.291 202.424 133.781 200.82 134.192 199.681C134.602 198.54 134.916 197.86 134.955 197.875Z" fill="black"/>
<path d="M176.94 88.5027L193.678 127.596C196.525 134.244 193.229 141.921 186.448 144.436C180.121 146.783 173.063 143.743 170.413 137.536C169.156 134.592 168.102 132.139 167.952 131.845C167.952 131.845 157.6 135.17 152.664 125.628C150.278 121.017 146.139 111.119 142.498 102.121C138.587 92.4574 142.767 81.4105 152.084 76.7358L153.011 76.2706C163.292 71.843 172.798 78.1019 176.94 88.5027Z" fill="#EBAC8C"/>
<path d="M167.824 131.723C167.824 131.723 174.14 129.172 178.557 121.885C178.557 121.885 179.065 130.28 169.05 134.222L167.824 131.723Z" fill="#EB996E"/>
<path d="M148.327 108.026C148.664 108.763 149.567 109.085 150.343 108.746C151.117 108.408 151.473 107.538 151.136 106.8C150.798 106.064 149.895 105.74 149.121 106.078C148.345 106.417 147.989 107.289 148.327 108.026Z" fill="#262626"/>
<path d="M146.477 106.194C146.737 106.287 147.389 104.997 148.868 104.261C150.333 103.504 151.797 103.72 151.865 103.459C151.904 103.339 151.569 103.104 150.925 102.997C150.29 102.888 149.331 102.953 148.414 103.418C147.497 103.884 146.893 104.61 146.623 105.18C146.345 105.755 146.353 106.155 146.477 106.194Z" fill="#262626"/>
<path d="M162.803 101.034C163.141 101.771 164.043 102.093 164.82 101.754C165.595 101.416 165.951 100.546 165.613 99.8091C165.276 99.0724 164.373 98.75 163.598 99.0878C162.821 99.4256 162.466 100.298 162.803 101.034Z" fill="#262626"/>
<path d="M161.468 98.9227C161.714 99.0495 162.531 97.8546 164.09 97.3173C165.641 96.7575 167.065 97.1622 167.167 96.9119C167.221 96.7987 166.921 96.5207 166.295 96.3315C165.679 96.1404 164.72 96.08 163.751 96.4216C162.781 96.7652 162.089 97.4061 161.746 97.9357C161.396 98.4704 161.351 98.8687 161.468 98.9227Z" fill="#262626"/>
<path d="M161.712 112.431C161.676 112.343 160.68 112.645 159.099 113.201C158.702 113.351 158.308 113.455 158.116 113.23C157.89 113.002 157.844 112.517 157.807 111.987C157.704 110.898 157.595 109.756 157.482 108.559C156.98 103.698 156.415 99.7769 156.219 99.7988C156.024 99.8207 156.271 103.779 156.774 108.64C156.906 109.834 157.033 110.973 157.155 112.062C157.227 112.562 157.226 113.17 157.701 113.639C157.944 113.87 158.323 113.936 158.597 113.879C158.875 113.831 159.09 113.729 159.281 113.647C160.817 112.976 161.748 112.517 161.712 112.431Z" fill="#262626"/>
<path d="M167.083 93.1699C166.849 92.7536 165.257 93.2304 163.308 93.314C161.36 93.4369 159.727 93.1306 159.539 93.5695C159.458 93.7779 159.795 94.1505 160.488 94.4774C161.176 94.8036 162.229 95.0488 163.397 94.9883C164.565 94.9252 165.585 94.5707 166.235 94.173C166.89 93.7747 167.187 93.3687 167.083 93.1699Z" fill="#262626"/>
<path d="M148.652 100.816C148.203 100.664 147.47 101.616 146.34 102.387C145.237 103.197 144.096 103.571 144.09 104.046C144.098 104.269 144.457 104.481 145.075 104.497C145.686 104.517 146.541 104.297 147.308 103.755C148.075 103.211 148.566 102.478 148.75 101.895C148.941 101.307 148.86 100.898 148.652 100.816Z" fill="#262626"/>
<path d="M179.684 96.0094C179.812 95.8563 185.302 90.7479 188.386 97.4179C191.469 104.087 184.138 105.808 184.037 105.622C183.937 105.435 179.684 96.0094 179.684 96.0094Z" fill="#EBAC8C"/>
<path d="M184.898 102.152C184.917 102.117 185.051 102.179 185.289 102.179C185.521 102.178 185.879 102.086 186.166 101.795C186.751 101.211 186.827 99.8177 186.303 98.6003C186.04 97.9852 185.645 97.4665 185.209 97.0869C184.78 96.6931 184.307 96.4981 183.923 96.5992C183.532 96.6809 183.379 97.009 183.384 97.2349C183.381 97.4627 183.485 97.5766 183.455 97.6042C183.444 97.6293 183.26 97.5586 183.187 97.2581C183.153 97.1126 183.158 96.9196 183.256 96.7188C183.356 96.5149 183.56 96.3399 183.82 96.2517C184.351 96.0497 185.033 96.3083 185.512 96.7246C186.02 97.13 186.479 97.7066 186.775 98.397C187.353 99.7605 187.247 101.336 186.412 102.061C185.999 102.4 185.542 102.44 185.268 102.375C184.984 102.307 184.88 102.175 184.898 102.152Z" fill="#EB996E"/>
<path d="M183.187 93.9504C182.064 94.2104 180.796 96.0037 180.84 97.1555C180.883 98.3072 181.322 99.4166 181.367 100.568C181.412 101.72 180.876 103.05 179.754 103.316C178.981 103.499 178.161 103.099 177.634 102.505C177.107 101.909 176.817 101.146 176.553 100.397C175.402 97.1374 174.521 93.7741 173.095 90.6244C171.669 87.4753 169.62 84.4877 166.679 82.6706C163.738 80.8535 159.789 80.4133 156.834 82.2067C154.877 83.3945 153.539 85.3969 151.655 86.698C149.421 88.2404 146.454 88.667 143.876 87.817C143.789 87.788 143.629 87.7558 143.442 87.7237C142.57 87.5744 141.862 86.8743 141.782 85.9934C141.755 85.6936 141.768 85.4014 141.854 85.1704C144.01 79.4346 150.735 74.7612 156.716 73.4331C162.699 72.105 169.558 73.3572 174.341 77.1883C179.123 81.0188 181.919 88.2822 183.187 93.9504Z" fill="#262626"/>
<path d="M167.072 114.257C167.052 114.359 166.714 114.356 166.215 114.438C165.719 114.53 165.051 114.729 164.434 115.178C163.809 115.613 163.357 116.16 163.077 116.585C162.791 117.009 162.655 117.314 162.557 117.292C162.475 117.277 162.448 116.91 162.655 116.369C162.855 115.833 163.316 115.141 164.049 114.629C164.773 114.101 165.616 113.935 166.188 113.965C166.771 114.002 167.09 114.179 167.072 114.257Z" fill="#262626"/>
<path d="M168.25 100.034C168.339 100.038 168.217 100.88 167.479 101.547C166.747 102.221 165.898 102.266 165.903 102.177C165.882 102.081 166.607 101.901 167.253 101.299C167.91 100.711 168.156 100.004 168.25 100.034Z" fill="#EB996E"/>
<path d="M114.715 111.916L124.874 93.34L133.244 86.5991L144.042 88.0849C144.042 88.0849 147.143 91.6207 145.946 93.3689C144.748 95.1172 143.665 99.5127 142.451 97.9105C141.236 96.3082 140.985 92.9256 140.985 92.9256L138.136 92.7731L138.162 97.7991L143.901 99.5455C143.901 99.5455 149.573 94.8251 150.147 95.861C150.723 96.897 150.22 98.81 146.972 101.558C143.724 104.304 139.792 108.547 139.792 108.547L134.688 109.758L130.101 117.082L114.715 111.916Z" fill="#FFBE9D"/>
<path d="M172.075 135.781L118.762 151.987L131.245 116.396L114.306 111.104L95.0606 150.637C89.2496 164.308 90.8299 170.352 96.2324 176.286C100.575 181.056 111.982 178.726 118.322 177.54L164.968 170.265L172.075 135.781Z" fill="#626262"/>
<path opacity="0.4" d="M172.075 135.781L118.762 151.987L131.245 116.396L114.306 111.104L95.0606 150.637C89.2496 164.308 90.8299 170.352 96.2324 176.286C100.575 181.056 111.982 178.726 118.322 177.54L164.805 170.292L172.075 135.781Z" fill="black"/>
<path d="M108.997 132.345C108.988 132.437 107.914 132.398 106.6 132.256C105.285 132.114 104.228 131.925 104.238 131.833C104.248 131.741 105.321 131.781 106.636 131.923C107.95 132.064 109.007 132.253 108.997 132.345Z" fill="#FAFAFA"/>
<path d="M109.843 130.472C109.817 130.561 108.825 130.353 107.627 130.008C106.429 129.664 105.479 129.312 105.504 129.223C105.53 129.135 106.522 129.342 107.72 129.687C108.918 130.032 109.868 130.383 109.843 130.472Z" fill="#FAFAFA"/>
<path d="M162.107 165.766C162.107 165.766 183.615 200.444 183.468 205.623C183.321 210.802 193.411 222.079 197.863 226.532C202.315 230.984 228.038 252.287 237.832 252.287C237.832 252.287 250.459 234.096 249.569 223.411C248.678 212.727 228.839 156.395 228.839 156.395C228.839 156.395 213.446 124.091 199.24 120.936C195.638 120.137 189.871 118.883 189.871 118.883C189.871 119.163 190.706 126.209 183.552 130.567C173.538 136.668 161.629 141.085 161.629 141.085L162.107 165.766Z" fill="#626262"/>
<path d="M187.117 131.203L154.939 140.492L126.88 146.343L139.362 110.752L121.485 105.167L103.178 144.994C97.3668 158.664 98.9471 164.709 104.35 170.643C108.692 175.412 120.099 173.082 126.439 171.896L181.225 166.777L187.117 131.203Z" fill="#626262"/>
<path d="M122.863 105.461L132.579 87.6969L140.949 80.9561L151.746 82.4418C151.746 82.4418 154.847 85.9776 153.65 87.7259C152.452 89.4742 151.369 93.8696 150.155 92.2674C148.94 90.6652 148.688 87.2825 148.688 87.2825L145.839 87.1294L145.865 92.1554L151.604 93.9018C151.604 93.9018 157.276 89.1814 157.851 90.2173C158.426 91.2533 157.923 93.1663 154.675 95.9139C151.427 98.6614 147.495 102.903 147.495 102.903L142.391 104.114L138.418 110.459L122.863 105.461Z" fill="#FFBE9D"/>
<path d="M138.416 110.458C138.413 110.456 138.432 110.418 138.473 110.346C138.521 110.263 138.583 110.159 138.66 110.026C138.838 109.732 139.089 109.318 139.412 108.785C140.089 107.686 141.069 106.097 142.319 104.07L142.337 104.041L142.371 104.033C143.864 103.672 145.573 103.259 147.47 102.8L147.417 102.831C149.556 100.543 152.134 97.8878 155.259 95.2136C155.999 94.5161 156.74 93.7581 157.293 92.8527C157.566 92.403 157.797 91.9126 157.882 91.3953C157.919 91.1373 157.915 90.8754 157.853 90.6277C157.824 90.5073 157.769 90.3786 157.715 90.284C157.687 90.2351 157.6 90.2056 157.474 90.2242C156.979 90.2976 156.465 90.6084 155.981 90.8863C155.493 91.1817 155.012 91.5047 154.536 91.8432C153.585 92.5214 152.64 93.2543 151.706 94.0232L151.639 94.0772L151.558 94.0528C149.74 93.5013 147.8 92.9132 145.818 92.3116L145.703 92.2768L145.702 92.1565C145.693 90.5652 145.684 88.8607 145.673 87.1305L145.672 86.9542L145.848 86.9638C146.746 87.0114 147.718 87.0635 148.697 87.1157L148.84 87.1234L148.854 87.2701C148.989 88.5892 149.228 90.0338 149.808 91.3335C149.922 91.5916 150.059 91.8374 150.218 92.0619C150.366 92.2936 150.56 92.475 150.738 92.439C150.928 92.41 151.128 92.1958 151.284 91.9809C151.444 91.7608 151.582 91.5163 151.713 91.2679C152.233 90.268 152.632 89.2037 153.17 88.2018C153.239 88.077 153.31 87.9528 153.385 87.8306C153.468 87.707 153.542 87.588 153.588 87.4812C153.615 87.4258 153.647 87.3718 153.671 87.3151L153.712 87.1311C153.751 87.0114 153.751 86.8821 153.751 86.7534C153.749 86.2367 153.578 85.7168 153.366 85.2284C152.928 84.2497 152.296 83.3572 151.625 82.5497L151.724 82.6037C147.941 82.0787 144.327 81.5774 140.929 81.1064L141.044 81.0749C138.01 83.5084 135.202 85.7612 132.66 87.799L132.692 87.7604C129.694 93.1925 127.25 97.6201 125.548 100.705C124.699 102.226 124.036 103.414 123.576 104.239C123.352 104.631 123.179 104.936 123.053 105.156C122.933 105.362 122.863 105.463 122.863 105.463C122.863 105.463 122.91 105.349 123.019 105.138C123.137 104.913 123.3 104.602 123.509 104.203C123.955 103.371 124.598 102.171 125.42 100.636C127.1 97.5378 129.51 93.0915 132.466 87.6369L132.478 87.6144L132.498 87.5983C135.031 85.5501 137.831 83.2865 140.855 80.8413L140.905 80.8008L140.97 80.8098C144.37 81.2737 147.984 81.7673 151.769 82.2833L151.831 82.2917L151.869 82.3374C152.566 83.1739 153.205 84.0702 153.667 85.0965C153.89 85.6093 154.077 86.1608 154.082 86.756C154.083 86.9046 154.081 87.0539 154.036 87.2025L153.985 87.4252C153.956 87.496 153.918 87.5642 153.884 87.6337C153.815 87.781 153.74 87.8981 153.668 88.0069C153.596 88.1227 153.529 88.2417 153.462 88.362C152.94 89.3362 152.541 90.3986 152.009 91.4249C151.874 91.681 151.73 91.9364 151.554 92.1797C151.373 92.41 151.178 92.6887 150.789 92.771C150.592 92.8051 150.394 92.7234 150.26 92.6172C150.126 92.5098 150.025 92.3798 149.944 92.2562C149.77 92.0098 149.625 91.7466 149.504 91.4751C148.897 90.1058 148.662 88.6568 148.522 87.2965L148.68 87.4509C147.701 87.3981 146.73 87.346 145.831 87.2971L146.007 87.1305C146.014 88.8607 146.023 90.5652 146.03 92.1565L145.914 92.0014C147.895 92.6063 149.834 93.1983 151.651 93.7529L151.504 93.7825C152.448 93.0085 153.396 92.2768 154.359 91.5941C154.84 91.2537 155.326 90.9282 155.826 90.6283C156.336 90.3445 156.819 90.028 157.448 89.9295C157.592 89.907 157.835 89.9282 157.964 90.1245C158.049 90.2718 158.1 90.405 158.14 90.5556C158.213 90.8509 158.215 91.154 158.171 91.4423C158.075 92.0195 157.824 92.5355 157.538 93.0046C156.957 93.9466 156.2 94.7117 155.445 95.4176C152.305 98.0821 149.73 100.707 147.574 102.978L147.551 103.001L147.52 103.008C145.619 103.451 143.906 103.849 142.41 104.198L142.462 104.161C141.183 106.17 140.181 107.746 139.488 108.834C139.149 109.357 138.887 109.763 138.7 110.052C138.614 110.18 138.547 110.28 138.494 110.36C138.445 110.426 138.42 110.46 138.416 110.458Z" fill="#EB996E"/>
<path d="M184.167 174.861C184.153 174.879 183.877 174.689 183.391 174.333C183.151 174.151 182.855 173.934 182.496 173.702C182.139 173.467 181.746 173.182 181.279 172.916C180.372 172.341 179.235 171.755 177.946 171.166C176.643 170.608 175.172 170.085 173.589 169.676C170.415 168.858 167.432 168.67 165.286 168.633C164.212 168.624 163.341 168.632 162.739 168.658C162.137 168.675 161.803 168.674 161.801 168.651C161.799 168.628 162.13 168.586 162.731 168.528C163.332 168.462 164.206 168.418 165.287 168.396C167.444 168.373 170.46 168.524 173.673 169.352C175.275 169.766 176.761 170.304 178.072 170.884C179.368 171.495 180.507 172.109 181.406 172.715C181.868 172.997 182.256 173.298 182.604 173.55C182.956 173.798 183.243 174.032 183.471 174.23C183.934 174.619 184.182 174.843 184.167 174.861Z" fill="#263238"/>
<path d="M180.646 132.882C180.653 132.904 180.309 133.029 179.681 133.236C178.995 133.453 178.097 133.737 177.015 134.081C174.759 134.781 171.637 135.725 168.182 136.749C164.726 137.773 161.592 138.681 159.318 139.323C158.222 139.626 157.313 139.876 156.618 140.067C155.978 140.236 155.621 140.319 155.613 140.297C155.606 140.275 155.949 140.151 156.575 139.944C157.261 139.727 158.158 139.442 159.241 139.099C161.496 138.399 164.621 137.454 168.079 136.43C171.536 135.405 174.672 134.496 176.947 133.854C178.042 133.552 178.951 133.301 179.645 133.11C180.284 132.942 180.64 132.86 180.646 132.882Z" fill="#263238"/>
<path d="M231.376 225.236C231.384 225.243 231.265 225.377 231.029 225.626C230.908 225.748 230.769 225.91 230.583 226.078C230.388 226.245 230.168 226.432 229.924 226.641C228.911 227.458 227.238 228.43 224.967 229.011C222.703 229.584 219.85 229.723 216.824 229.06C213.793 228.401 210.687 226.893 207.745 224.907C204.8 222.908 202.252 220.672 199.947 218.649C197.645 216.62 195.556 214.816 193.71 213.416C191.865 212.016 190.281 211.009 189.153 210.374C188.588 210.058 188.145 209.816 187.84 209.663C187.538 209.504 187.382 209.416 187.387 209.405C187.391 209.395 187.558 209.463 187.87 209.602C188.185 209.736 188.638 209.959 189.216 210.259C190.368 210.862 191.98 211.844 193.852 213.226C195.725 214.607 197.838 216.4 200.15 218.416C202.466 220.426 205.011 222.646 207.932 224.63C210.851 226.599 213.915 228.094 216.891 228.759C219.865 229.428 222.675 229.316 224.911 228.782C227.154 228.239 228.819 227.315 229.845 226.538C230.095 226.34 230.319 226.162 230.518 226.005C230.709 225.846 230.854 225.692 230.982 225.579C231.231 225.346 231.367 225.228 231.376 225.236Z" fill="#263238"/>
<path d="M219.177 188.691C219.177 188.715 218.951 188.734 218.539 188.75C218.127 188.772 217.529 188.753 216.795 188.682C216.06 188.617 215.191 188.462 214.244 188.22C213.301 187.963 212.282 187.609 211.259 187.132C210.24 186.643 209.32 186.08 208.523 185.515C207.735 184.936 207.065 184.362 206.547 183.835C206.026 183.313 205.632 182.863 205.388 182.53C205.139 182.202 205.011 182.014 205.029 182C205.077 181.961 205.641 182.675 206.71 183.664C207.242 184.162 207.917 184.708 208.701 185.263C209.495 185.805 210.402 186.35 211.402 186.829C212.408 187.298 213.404 187.654 214.326 187.923C215.253 188.177 216.103 188.353 216.825 188.448C218.266 188.646 219.176 188.63 219.177 188.691Z" fill="#263238"/>
<g opacity="0.2">
<path d="M194.637 213.825C197.247 212.749 200.301 213.59 202.679 215.112C205.056 216.634 206.963 218.773 209.105 220.612C211.246 222.452 213.8 224.056 216.621 224.143C220.702 224.268 224.363 221.224 228.445 221.277C229.966 221.297 231.768 222.106 231.853 223.625C231.918 224.794 230.922 225.732 229.945 226.377C225.516 229.301 222.546 231.256 212.865 227.535C206.198 223.915 200.159 219.286 194.637 213.825Z" fill="black"/>
</g>
<path d="M184.004 205.547C183.923 205.591 179.341 197.327 173.772 187.091C168.201 176.852 163.751 168.518 163.833 168.474C163.914 168.429 168.495 176.692 174.067 186.931C179.636 197.167 184.085 205.503 184.004 205.547Z" fill="#263238"/>
<path d="M153.137 169.116C153.116 169.124 152.957 168.775 152.686 168.136C152.412 167.497 152.046 166.562 151.619 165.397C150.764 163.066 149.718 159.793 148.838 156.105C147.963 152.415 147.424 149.021 147.138 146.555C146.994 145.322 146.9 144.321 146.857 143.629C146.811 142.937 146.796 142.553 146.819 142.551C146.843 142.549 146.901 142.928 146.987 143.616C147.069 144.304 147.199 145.299 147.373 146.525C147.718 148.977 148.292 152.351 149.164 156.028C150.041 159.702 151.047 162.973 151.843 165.318C152.24 166.491 152.572 167.437 152.808 168.089C153.04 168.742 153.159 169.107 153.137 169.116Z" fill="#111111"/>
<path d="M156.881 169.069C156.86 169.077 156.706 168.71 156.446 168.038C156.184 167.368 155.834 166.387 155.429 165.164C154.618 162.721 153.635 159.295 152.835 155.446C152.04 151.594 151.581 148.06 151.355 145.496C151.241 144.213 151.172 143.173 151.146 142.454C151.117 141.735 151.113 141.337 151.135 141.335C151.159 141.334 151.207 141.729 151.276 142.444C151.341 143.16 151.446 144.194 151.59 145.471C151.876 148.024 152.371 151.54 153.164 155.378C153.961 159.213 154.903 162.637 155.655 165.092C156.03 166.32 156.345 167.311 156.569 167.995C156.791 168.679 156.903 169.062 156.881 169.069Z" fill="#111111"/>
<path d="M205.119 182.708C205.121 182.719 205.015 182.754 204.81 182.809C204.566 182.869 204.269 182.943 203.91 183.033C203.128 183.224 201.988 183.466 200.574 183.737C197.746 184.28 193.807 184.876 189.423 185.221C185.039 185.561 181.053 185.586 178.176 185.489C176.737 185.442 175.573 185.379 174.771 185.312C174.402 185.28 174.097 185.253 173.848 185.231C173.637 185.209 173.527 185.192 173.527 185.181C173.528 185.169 173.64 185.164 173.852 185.164C174.102 185.169 174.408 185.175 174.778 185.182C175.581 185.209 176.744 185.235 178.181 185.252C181.054 185.287 185.025 185.226 189.397 184.886C193.767 184.542 197.699 183.985 200.532 183.503C201.948 183.263 203.094 183.056 203.883 182.905C204.247 182.84 204.548 182.786 204.796 182.742C205.005 182.709 205.116 182.697 205.119 182.708Z" fill="#111111"/>
<path d="M232.288 171.911C232.301 171.93 232.006 172.169 231.459 172.585C230.915 173.005 230.105 173.584 229.086 174.273C227.05 175.652 224.138 177.42 220.765 179.073C217.388 180.722 214.204 181.935 211.865 182.695C210.696 183.077 209.742 183.361 209.076 183.532C208.412 183.708 208.042 183.795 208.035 183.772C208.029 183.75 208.387 183.621 209.039 183.408C209.692 183.198 210.633 182.88 211.789 182.471C214.1 181.656 217.255 180.414 220.617 178.772C223.976 177.127 226.893 175.399 228.956 174.075C229.988 173.414 230.816 172.866 231.383 172.479C231.952 172.096 232.274 171.892 232.288 171.911Z" fill="#111111"/>
<path d="M231.745 166.231C231.748 166.236 231.705 166.273 231.62 166.339C231.517 166.416 231.39 166.511 231.233 166.628C230.866 166.892 230.362 167.254 229.724 167.713C229.393 167.949 229.027 168.209 228.629 168.492C228.222 168.767 227.767 169.045 227.284 169.355C226.311 169.961 225.228 170.695 223.956 171.38C223.327 171.735 222.668 172.106 221.982 172.493C221.293 172.876 220.548 173.221 219.793 173.608C218.289 174.401 216.616 175.106 214.869 175.878C211.337 177.329 207.364 178.714 203.093 179.814C198.811 180.877 194.656 181.546 190.858 181.948C188.954 182.099 187.147 182.274 185.447 182.291C184.599 182.31 183.78 182.36 182.991 182.35C182.204 182.336 181.448 182.322 180.725 182.309C179.28 182.311 177.979 182.18 176.835 182.109C176.263 182.066 175.73 182.038 175.241 181.989C174.756 181.929 174.312 181.875 173.908 181.825C173.129 181.724 172.513 181.645 172.065 181.587C171.872 181.559 171.715 181.535 171.587 181.517C171.48 181.499 171.425 181.487 171.426 181.481C171.426 181.476 171.483 181.476 171.592 181.483C171.72 181.492 171.878 181.505 172.074 181.52C172.523 181.562 173.14 181.621 173.922 181.696C174.325 181.736 174.77 181.781 175.256 181.831C175.744 181.87 176.277 181.889 176.848 181.923C177.99 181.976 179.289 182.09 180.73 182.073C181.451 182.079 182.205 182.086 182.99 182.092C183.776 182.095 184.592 182.039 185.438 182.014C187.131 181.985 188.932 181.8 190.828 181.641C194.61 181.223 198.747 180.548 203.012 179.489C207.266 178.393 211.226 177.022 214.752 175.592C216.495 174.831 218.167 174.138 219.671 173.359C220.427 172.979 221.172 172.641 221.862 172.265C222.55 171.886 223.21 171.521 223.841 171.174C225.117 170.505 226.205 169.787 227.186 169.196C227.672 168.895 228.132 168.626 228.543 168.359C228.946 168.085 229.317 167.834 229.652 167.606C230.305 167.169 230.82 166.824 231.195 166.573C231.359 166.467 231.493 166.381 231.601 166.311C231.692 166.254 231.742 166.227 231.745 166.231Z" fill="#111111"/>
<path d="M134.71 123.998C134.684 124.087 130.357 122.909 125.045 121.366C119.732 119.823 115.447 118.502 115.473 118.412C115.499 118.323 119.825 119.502 125.138 121.044C130.45 122.587 134.735 123.909 134.71 123.998Z" fill="#111111"/>
<path d="M133.866 126.42C133.84 126.509 129.446 125.306 124.053 123.734C118.657 122.162 114.306 120.815 114.332 120.726C114.358 120.637 118.751 121.84 124.147 123.413C129.54 124.985 133.892 126.331 133.866 126.42Z" fill="#111111"/>
<g opacity="0.3">
<path d="M189.36 185.577C189.084 179.902 185.244 174.792 180.307 171.981C175.37 169.17 169.599 168.403 163.926 168.718L178.433 193.796C180.264 193.87 181.621 193.882 183.415 193.512C185.21 193.141 186.97 192.276 188.057 190.8C189.144 189.326 189.449 187.405 189.36 185.577Z" fill="black"/>
</g>
<path d="M297.456 100.76C297.953 92.5607 298.044 89.6711 302.502 88.6605C298.727 87.6704 297.546 87.4781 297.022 80.0079C296.385 87.8467 295.462 87.9932 292.003 88.8467C296.057 89.6973 296.808 92.842 297.456 100.76Z" fill="white"/>
<path d="M5.45557 246.76C5.95257 238.561 6.04371 235.671 10.5024 234.66C6.72692 233.67 5.54628 233.478 5.02212 226.008C4.38447 233.847 3.46155 233.993 0.00293753 234.847C4.05668 235.697 4.80758 238.842 5.45557 246.76Z" fill="white"/>
<path d="M300.313 270.84C300.615 265.373 300.671 263.447 303.378 262.773C301.085 262.113 300.368 261.985 300.05 257.005C299.663 262.231 299.102 262.329 297.003 262.898C299.464 263.465 299.92 265.561 300.313 270.84Z" fill="white"/>
<path d="M8.30566 95.8397C8.60699 90.3732 8.6627 88.4464 11.3701 87.7727C9.07757 87.1128 8.36062 86.9849 8.04243 82.0047C7.65563 87.2305 7.09465 87.3288 4.99545 87.8982C7.45676 88.4646 7.91251 90.5612 8.30566 95.8397Z" fill="white"/>
<path d="M280.313 183.84C280.615 178.374 280.671 176.447 283.378 175.773C281.085 175.113 280.368 174.985 280.05 170.005C279.663 175.231 279.102 175.329 277.003 175.899C279.465 176.465 279.92 178.562 280.313 183.84Z" fill="white"/>
<path d="M29.3135 167.84C29.6148 162.373 29.6705 160.447 32.3779 159.773C30.0854 159.113 29.3684 158.985 29.0502 154.005C28.6634 159.231 28.1025 159.329 26.0033 159.898C28.4646 160.465 28.9203 162.561 29.3135 167.84Z" fill="white"/>
</svg>
