<svg width="341" height="243" viewBox="0 0 341 243" fill="none" xmlns="http://www.w3.org/2000/svg">
<path d="M170.494 242.317C264.442 242.317 340.602 225.396 340.602 204.524C340.602 183.651 264.442 166.73 170.494 166.73C76.5465 166.73 0.386719 183.651 0.386719 204.524C0.386719 225.396 76.5465 242.317 170.494 242.317Z" fill="#808080"/>
<path d="M301.381 169.582L315.339 202.977L311.964 209.057L305.895 204.665L294.391 179.008L301.381 169.582Z" fill="#EBAC8C"/>
<path d="M325.792 211.436L302.541 211.513C302.118 211.515 301.774 211.173 301.773 210.751L301.77 209.787C301.768 209.365 302.11 209.021 302.533 209.019L325.784 208.941C326.206 208.94 326.55 209.281 326.552 209.705L326.555 210.668C326.556 211.09 326.215 211.434 325.792 211.436Z" fill="#D9D9D9"/>
<path d="M302.873 201.442L302.075 208.381C301.977 209.236 302.458 210.012 303.087 210.01L324.925 209.937C325.492 209.935 326.051 209.579 326.347 208.912C326.651 208.229 326.708 207.201 325.726 205.822C323.761 203.064 317.335 202.411 314.185 200.062L304.013 200.097C303.445 200.099 302.962 200.668 302.873 201.442Z" fill="#464646"/>
<path d="M312.669 204.096C312.511 204 312.452 203.734 312.543 203.531C312.968 202.579 314.301 200.261 317.03 200.727C317.187 200.754 317.295 200.963 317.269 201.179L317.268 201.186C317.242 201.395 317.101 201.532 316.948 201.507C314.503 201.098 313.37 203.141 313.026 203.939C312.953 204.109 312.8 204.176 312.669 204.096Z" fill="#D9D9D9"/>
<path d="M314.923 204.983C314.764 204.886 314.706 204.621 314.797 204.418C315.222 203.466 316.555 201.148 319.283 201.614C319.441 201.641 319.548 201.85 319.523 202.066L319.522 202.072C319.496 202.282 319.355 202.419 319.202 202.394C316.757 201.985 315.624 204.028 315.28 204.826C315.207 204.996 315.054 205.063 314.923 204.983Z" fill="#D9D9D9"/>
<path d="M317.044 205.807C316.886 205.711 316.827 205.445 316.918 205.242C317.344 204.29 318.676 201.972 321.405 202.438C321.562 202.465 321.67 202.674 321.644 202.89L321.642 202.897C321.617 203.106 321.476 203.244 321.323 203.218C318.878 202.809 317.746 204.852 317.401 205.65C317.328 205.82 317.175 205.887 317.044 205.807Z" fill="#D9D9D9"/>
<path opacity="0.3" d="M308.915 209.99C307.176 204.392 304.208 203.783 302.589 203.918L302.075 208.381C301.977 209.236 302.458 210.012 303.086 210.01L308.915 209.99Z" fill="#808080"/>
<path d="M279.861 170.934L291.851 199.621L288.952 204.844L283.739 201.072L273.855 179.031L279.861 170.934Z" fill="#EBAC8C"/>
<path d="M300.716 206.889L280.958 206.955C280.535 206.956 280.191 206.615 280.19 206.192L280.188 205.581C280.186 205.157 280.528 204.814 280.951 204.812L300.708 204.746C301.131 204.745 301.475 205.087 301.477 205.509L301.479 206.121C301.48 206.543 301.139 206.887 300.716 206.889Z" fill="#D9D9D9"/>
<path d="M281.138 198.302L280.452 204.263C280.368 204.997 280.781 205.663 281.321 205.662L300.081 205.599C300.568 205.597 301.049 205.292 301.303 204.719C301.563 204.131 301.613 203.249 300.769 202.064C299.082 199.696 293.561 199.135 290.855 197.117L282.117 197.146C281.629 197.148 281.214 197.637 281.138 198.302Z" fill="#464646"/>
<path d="M289.544 200.581C289.407 200.498 289.357 200.27 289.435 200.096C289.801 199.279 290.945 197.287 293.289 197.687C293.425 197.71 293.517 197.89 293.495 198.076L293.494 198.082C293.473 198.261 293.351 198.379 293.22 198.357C291.119 198.006 290.146 199.761 289.85 200.446C289.787 200.593 289.657 200.65 289.544 200.581Z" fill="#D9D9D9"/>
<path d="M291.485 201.341C291.349 201.258 291.299 201.03 291.377 200.856C291.742 200.038 292.887 198.046 295.231 198.447C295.366 198.47 295.459 198.65 295.436 198.835L295.436 198.841C295.414 199.02 295.292 199.139 295.161 199.117C293.061 198.765 292.088 200.52 291.792 201.206C291.729 201.352 291.598 201.41 291.485 201.341Z" fill="#D9D9D9"/>
<path d="M293.305 202.054C293.169 201.971 293.119 201.743 293.197 201.568C293.563 200.751 294.707 198.759 297.051 199.16C297.187 199.183 297.279 199.363 297.257 199.548L297.256 199.554C297.234 199.733 297.113 199.852 296.981 199.83C294.881 199.478 293.908 201.233 293.612 201.918C293.549 202.065 293.418 202.123 293.305 202.054Z" fill="#D9D9D9"/>
<path opacity="0.3" d="M286.328 205.646C284.834 200.837 282.284 200.314 280.893 200.43L280.452 204.264C280.368 204.998 280.781 205.664 281.321 205.662L286.328 205.646Z" fill="#808080"/>
<path d="M286.639 183.486L290.594 191.705C290.594 191.705 286.827 195.033 279.796 195.284C272.765 195.535 278.54 187.688 278.54 187.688L286.639 183.486Z" fill="#222323"/>
<path d="M303.425 162.45C303.425 162.45 308.698 164.145 309.263 171.066C309.263 171.066 310.082 174.87 308.33 178.218C308.33 178.218 300.458 174.739 300.411 174.221C300.364 173.703 302.153 160.943 302.153 160.943L303.425 162.45Z" fill="#EBAC8C"/>
<path d="M270.372 147.855C270.372 147.855 286.758 133.259 299.376 160.191L313.69 189.007C313.69 189.007 303.708 195.743 297.869 197.931L287.323 182.226C287.323 182.226 278.471 232.701 228.938 229.311C179.405 225.92 217.826 166.406 217.826 166.406L240.238 183.169L251.35 187.5C251.35 187.5 259.637 159.626 270.372 147.855Z" fill="#333333"/>
<path d="M266.538 72.5503C266.538 72.5503 273.475 98.6039 265.753 99.6398C258.032 100.675 255.301 100.581 255.301 100.581L254.83 113.67L241.552 109.527L242.87 96.6262L240.422 77.2274L244.283 68.752L266.538 72.5503Z" fill="#EBAC8C"/>
<path d="M267.211 62.7212C267.211 62.7212 271.797 61.5139 265.878 58.6216C259.958 55.7293 245.809 54.5151 238.906 61.8795C238.906 61.8795 228.596 74.1689 235.912 88.1968C237.014 87.5485 240.808 74.5308 240.808 74.5308C240.808 74.5308 258.732 79.5169 255.176 72.3207C255.176 72.3207 274.074 78.7161 269.353 70.143C269.353 70.143 275.643 68.7926 267.211 62.7212Z" fill="#111111"/>
<path d="M263.593 69.7262C263.593 69.7262 266.481 83.4117 258.069 86.5509C258.069 86.5509 257.594 97.9768 253.06 97.9768C248.526 97.9768 240.383 103.276 235.917 88.1958C231.45 73.1162 245.262 67.5917 245.262 67.5917L254.927 64.5781L263.593 69.7262Z" fill="#111111"/>
<path d="M260.629 89.1141C260.943 91.6269 259.514 93.832 257.436 94.0383C255.359 94.2451 253.42 92.3751 253.106 89.8618C252.791 87.3483 254.22 85.1438 256.298 84.9375C258.375 84.7306 260.314 86.6007 260.629 89.1141Z" fill="#EBAC8C"/>
<path d="M234.319 105.384C237.718 104.531 241.294 104.733 244.639 105.777C249.969 107.442 262.138 111.466 264.912 114.322C268.49 118.006 274.517 143.243 278.284 147.857C282.051 152.471 303.898 160.193 303.898 160.193C303.898 160.193 306.158 166.408 303.898 169.986C303.898 169.986 275.647 172.247 259.827 154.731C259.827 154.731 254.741 182.249 255.683 197.023C255.683 197.023 230.446 215.941 203.514 203.511C203.514 203.511 202.046 113.486 234.319 105.384Z" fill="#626262"/>
<path d="M259.823 154.728C259.823 154.728 254.676 183.063 255.68 197.021C255.68 197.021 245.712 203.771 237.875 205.491C237.875 205.491 244.505 168.414 251.348 145.123C251.348 145.123 257.974 153.147 259.823 154.728Z" fill="#454545"/>
<path d="M303.901 169.984C301.362 169.96 298.828 169.819 296.306 169.571C293.784 169.331 291.273 168.998 288.781 168.567C286.291 168.125 283.818 167.593 281.387 166.913C278.955 166.241 276.558 165.444 274.237 164.467C271.911 163.506 269.66 162.361 267.543 161.009C265.419 159.668 263.443 158.096 261.68 156.31L256.552 150.699C254.819 148.841 253.107 146.964 251.355 145.123C254.601 149.044 257.844 152.908 261.202 156.768C262.95 158.651 264.966 160.275 267.108 161.684C269.259 163.086 271.551 164.258 273.911 165.248C278.645 167.208 283.636 168.463 288.675 169.217C293.717 169.959 298.826 170.263 303.901 169.984Z" fill="black"/>
<path d="M297.863 197.932L295.488 194.292L293.086 190.671L288.252 183.449L278.527 169.045C279.993 171.546 281.548 173.992 283.115 176.429C284.683 178.866 286.296 181.274 287.901 183.686C289.534 186.08 291.157 188.48 292.818 190.854C294.478 193.229 296.148 195.597 297.863 197.932Z" fill="black"/>
<path d="M238.912 61.8789C238.912 61.8789 230.919 66.7019 227.789 83.9167C224.659 101.131 207.302 117.777 207.017 128.874C206.732 139.972 217.687 149.931 239.74 140.825C261.792 131.72 262.54 110.237 260.672 103.692C258.804 97.1481 256.748 94.0533 256.748 94.0533C256.748 94.0533 251.141 97.6459 248.855 94.0533C246.569 90.4607 249.552 78.3678 249.552 78.3678C249.552 78.3678 252.297 70.9396 251.354 69.9585C250.41 68.9783 238.912 61.8789 238.912 61.8789Z" fill="#111111"/>
<path d="M39.5766 169.039L25.4922 202.736L28.8979 208.872L35.0217 204.441L46.6308 178.55L39.5766 169.039Z" fill="#EBAC8C"/>
<path d="M14.6697 211.271L38.6539 211.351C38.9361 211.352 39.1658 211.124 39.1671 210.841L39.1721 209.347C39.1729 209.065 38.945 208.835 38.6623 208.834L14.6783 208.754C14.396 208.753 14.1663 208.981 14.1652 209.264L14.1602 210.758C14.1594 211.04 14.3876 211.27 14.6697 211.271Z" fill="#D9D9D9"/>
<path d="M38.0597 201.187L38.8648 208.189C38.9642 209.052 38.479 209.834 37.8447 209.832L15.8087 209.758C15.2363 209.756 14.6717 209.397 14.3731 208.724C14.0673 208.035 14.0092 206.997 15.0003 205.606C16.9821 202.824 23.4667 202.165 26.6453 199.795L36.9103 199.829C37.483 199.832 37.97 200.406 38.0597 201.187Z" fill="#464646"/>
<path d="M28.1921 203.865C28.352 203.768 28.4108 203.5 28.3195 203.295C27.8903 202.335 26.5451 199.996 23.7922 200.466C23.6331 200.493 23.5245 200.704 23.5508 200.922L23.5516 200.929C23.577 201.14 23.7199 201.278 23.874 201.253C26.3415 200.84 27.4844 202.902 27.8318 203.707C27.9055 203.879 28.0597 203.946 28.1921 203.865Z" fill="#D9D9D9"/>
<path d="M25.8949 204.756C26.0549 204.658 26.1138 204.391 26.0224 204.186C25.5931 203.226 24.2485 200.887 21.495 201.357C21.3359 201.384 21.2273 201.595 21.2541 201.813L21.2549 201.82C21.2803 202.031 21.4228 202.169 21.5769 202.143C24.0443 201.731 25.1872 203.792 25.5347 204.598C25.6085 204.769 25.7626 204.837 25.8949 204.756Z" fill="#D9D9D9"/>
<path d="M23.7704 205.592C23.9304 205.495 23.9892 205.226 23.8977 205.022C23.4684 204.062 22.1239 201.723 19.3703 202.193C19.2112 202.22 19.1026 202.431 19.1289 202.649L19.1301 202.656C19.1552 202.867 19.298 203.005 19.452 202.979C21.9195 202.567 23.0624 204.628 23.41 205.433C23.4839 205.605 23.6381 205.673 23.7704 205.592Z" fill="#D9D9D9"/>
<path opacity="0.3" d="M31.957 209.811C33.7121 204.163 36.707 203.548 38.341 203.684L38.8588 208.188C38.9582 209.051 38.473 209.833 37.8387 209.83L31.957 209.811Z" fill="#808080"/>
<path d="M61.283 170.404L49.1836 199.352L52.1095 204.622L57.3698 200.816L67.3427 178.575L61.283 170.404Z" fill="#EBAC8C"/>
<path d="M39.9704 206.68L60.4296 206.748C60.7123 206.749 60.942 206.521 60.9428 206.238L60.9466 205.099C60.9479 204.817 60.7194 204.587 60.4371 204.586L39.9775 204.518C39.6952 204.517 39.4655 204.745 39.4647 205.027L39.4609 206.167C39.4596 206.449 39.6881 206.679 39.9704 206.68Z" fill="#D9D9D9"/>
<path d="M59.9867 198.016L60.6783 204.031C60.7635 204.773 60.3466 205.445 59.8017 205.443L40.8716 205.38C40.3797 205.378 39.8949 205.069 39.6385 204.491C39.3754 203.899 39.3257 203.008 40.1771 201.812C41.8796 199.422 47.45 198.856 50.1807 196.82L58.9986 196.85C59.4915 196.852 59.9094 197.345 59.9867 198.016Z" fill="#464646"/>
<path d="M51.4983 200.317C51.6357 200.233 51.6861 200.003 51.6076 199.827C51.2389 199.002 50.0834 196.993 47.7183 197.397C47.5817 197.42 47.4886 197.601 47.5112 197.789L47.5116 197.794C47.5338 197.976 47.6565 198.095 47.7889 198.072C49.9086 197.718 50.8903 199.489 51.1889 200.181C51.2523 200.328 51.3842 200.387 51.4983 200.317Z" fill="#D9D9D9"/>
<path d="M49.5415 201.083C49.6785 200.999 49.7295 200.769 49.651 200.593C49.2819 199.768 48.1268 197.758 45.7616 198.163C45.6251 198.186 45.5315 198.367 45.5542 198.554L45.555 198.56C45.577 198.741 45.6998 198.86 45.8317 198.838C47.9514 198.484 48.9336 200.255 49.2317 200.946C49.2956 201.094 49.4275 201.152 49.5415 201.083Z" fill="#D9D9D9"/>
<path d="M47.7091 201.799C47.8465 201.716 47.8969 201.486 47.8185 201.31C47.4494 200.485 46.2943 198.475 43.9292 198.879C43.7928 198.903 43.6995 199.084 43.7221 199.271L43.7229 199.277C43.7447 199.458 43.8674 199.577 43.9993 199.555C46.1194 199.201 47.1011 200.972 47.3993 201.663C47.4632 201.811 47.5951 201.869 47.7091 201.799Z" fill="#D9D9D9"/>
<path opacity="0.3" d="M54.75 205.426C56.2575 200.573 58.8302 200.045 60.2341 200.162L60.6789 204.031C60.7642 204.772 60.3473 205.445 59.8024 205.443L54.75 205.426Z" fill="#808080"/>
<path d="M54.444 183.07L50.4531 191.364C50.4531 191.364 54.2539 194.722 61.349 194.974C68.4441 195.228 62.6159 187.309 62.6159 187.309L54.444 183.07Z" fill="#222323"/>
<path d="M37.502 161.845C37.502 161.845 32.1808 163.555 31.6108 170.539C31.6108 170.539 30.7848 174.377 32.5521 177.756C32.5521 177.756 40.4952 174.245 40.5428 173.722C40.5903 173.2 38.7848 160.324 38.7848 160.324L37.502 161.845Z" fill="#EBAC8C"/>
<path d="M70.8586 147.115C70.8586 147.115 54.3249 132.387 41.5917 159.563L27.1484 188.64C27.1484 188.64 37.2209 195.438 43.1121 197.646L53.7546 181.799C53.7546 181.799 62.687 232.731 112.669 229.31C162.65 225.89 123.881 165.835 123.881 165.835L101.266 182.749L90.0529 187.12C90.053 187.12 81.6914 158.994 70.8586 147.115Z" fill="#333333"/>
<path d="M74.721 71.1295C74.721 71.1295 67.7212 97.4191 75.5131 98.4642C83.3047 99.5094 86.0604 99.4145 86.0604 99.4145L86.5356 112.623L99.9335 108.441L98.6031 95.4233L101.074 75.8489L97.1778 67.2969L74.721 71.1295Z" fill="#EBAC8C"/>
<path d="M74.0378 61.2102C74.0378 61.2102 69.4097 59.9921 75.3832 57.0736C81.3567 54.1552 95.6342 52.93 102.6 60.3612C102.6 60.3612 105.312 56.892 107.452 58.5628C109.592 60.233 104.917 61.771 104.917 61.771C104.917 61.771 108.002 62.5828 108.485 64.5554C108.842 66.0135 106.956 65.5028 105.948 65.1375C107.598 65.9969 113.003 72.7617 105.62 86.9172C104.509 86.2628 100.68 73.1275 100.68 73.1275C100.68 73.1275 82.593 78.1585 86.1817 70.8968C86.1817 70.8968 67.113 77.35 71.8767 68.7C71.8767 68.7 65.5297 67.337 74.0378 61.2102Z" fill="#111111"/>
<path d="M77.6938 68.2786C77.6938 68.2786 74.7799 82.0884 83.2685 85.2562C83.2685 85.2562 83.7474 96.7855 88.3225 96.7855C92.8974 96.7855 101.115 102.132 105.622 86.916C110.128 71.6994 96.1918 66.1247 96.1918 66.1247L86.4392 63.084L77.6938 68.2786Z" fill="#111111"/>
<path d="M80.6805 87.8417C80.3632 90.3776 81.8051 92.6024 83.9013 92.8108C85.9975 93.0191 87.9539 91.1321 88.2713 88.5963C88.5886 86.0603 87.1467 83.836 85.0505 83.627C82.9542 83.4191 80.998 85.3057 80.6805 87.8417Z" fill="#EBAC8C"/>
<path d="M107.234 104.258C103.805 103.397 100.197 103.601 96.8214 104.655C91.443 106.335 79.1637 110.395 76.3646 113.277C72.7538 116.994 66.6721 142.46 62.8714 147.116C59.0707 151.772 37.0254 159.564 37.0254 159.564C37.0254 159.564 34.7446 165.835 37.0254 169.446C37.0254 169.446 65.5319 171.727 81.4956 154.052C81.4956 154.052 86.6267 181.82 85.6768 196.728C85.6768 196.728 111.143 215.817 138.319 203.274C138.319 203.274 139.8 112.434 107.234 104.258Z" fill="#626262"/>
<path d="M81.5 154.054C81.5 154.054 86.6947 182.645 85.6812 196.729C85.6812 196.729 95.7395 203.541 103.648 205.277C103.648 205.277 96.9571 167.864 90.052 144.361C90.052 144.361 83.3661 152.458 81.5 154.054Z" fill="#454545"/>
<path d="M37.0273 169.447C39.5901 169.424 42.1469 169.281 44.6916 169.031C47.2368 168.788 49.7706 168.453 52.2853 168.018C54.7975 167.572 57.2925 167.035 59.7458 166.349C62.1995 165.671 64.6185 164.866 66.9606 163.881C69.3084 162.91 71.5786 161.755 73.7158 160.392C75.8585 159.038 77.8519 157.452 79.632 155.65L84.8055 149.988C86.5551 148.113 88.2818 146.218 90.0494 144.361C86.7748 148.318 83.5026 152.216 80.1135 156.112C78.3496 158.012 76.316 159.65 74.1543 161.072C71.9841 162.487 69.6716 163.67 67.2901 164.669C62.5126 166.646 57.477 167.913 52.3918 168.674C47.3035 169.422 42.1489 169.729 37.0273 169.447Z" fill="black"/>
<path d="M43.1055 197.644L45.5019 193.971L47.9259 190.317L52.8037 183.03L62.6169 168.494C61.1378 171.018 59.5685 173.486 57.9875 175.946C56.4053 178.405 54.7775 180.834 53.1577 183.268C51.51 185.683 49.8722 188.105 48.1964 190.501C46.5217 192.898 44.8369 195.287 43.1055 197.644Z" fill="white"/>
<path d="M174.017 79.8595L163.034 75.9162L179.4 69.021L173.477 66.21L163.651 61.3426L171.302 52.9348L160.395 47.9636L165.834 38.6353L171.275 34.4982L166.107 25.835C143.057 -5.97308 113.104 17.0644 119.272 41.4108C126.982 71.8423 170.724 91.2096 170.724 91.2096L169.334 89.0531L174.017 79.8595Z" fill="#D9D9D9"/>
<path d="M222.072 41.3187C226.358 16.6037 199.883 -3.55399 174.048 27.1624L178.888 35.087L172.94 38.455L166.297 46.9674L176.436 53.3597L167.724 60.6626L176.548 66.0341L182.62 69.4272L165.969 76.4779L176.154 79.4706L169.631 88.8857L170.718 91.2094C170.718 91.2094 217.317 68.7318 222.072 41.3187Z" fill="#D9D9D9"/>
<path d="M295.361 22.239C295.865 13.9122 295.958 10.9776 300.486 9.95137C296.652 8.94582 295.453 8.75053 294.921 1.16405C294.274 9.12482 293.336 9.27361 289.823 10.1404C293.94 11.0042 294.703 14.1979 295.361 22.239Z" fill="white"/>
<path d="M15.0717 127.858C15.5764 119.531 15.669 116.597 20.1971 115.57C16.3628 114.564 15.1638 114.369 14.6315 106.783C13.9839 114.744 13.0466 114.893 9.53417 115.76C13.651 116.623 14.4136 119.817 15.0717 127.858Z" fill="white"/>
<path d="M14.9197 36.9927C15.2257 31.4411 15.2823 29.4843 18.0319 28.8C15.7036 28.1299 14.9755 28 14.6524 22.9422C14.2595 28.2494 13.6898 28.3493 11.5579 28.9275C14.0576 29.5027 14.5204 31.632 14.9197 36.9927Z" fill="white"/>
<path d="M337.877 113.723C338.183 108.172 338.239 106.215 340.989 105.531C338.661 104.86 337.933 104.73 337.609 99.6727C337.217 104.98 336.647 105.08 334.515 105.658C337.015 106.233 337.477 108.362 337.877 113.723Z" fill="white"/>
<path d="M167.256 127.938C167.562 122.386 167.618 120.43 170.368 119.745C168.04 119.075 167.311 118.945 166.988 113.888C166.595 119.195 166.026 119.295 163.894 119.873C166.394 120.448 166.856 122.577 167.256 127.938Z" fill="white"/>
</svg>
