<svg width="400" height="400" viewBox="0 0 400 400" fill="none" xmlns="http://www.w3.org/2000/svg">
<path d="M96.0203 367.262H83.5664L104.906 318.717H116.267L137.752 367.262H125.225L119.326 353.949H101.92L96.0203 367.262ZM110.659 334.237L106.071 344.608H115.175L110.659 334.237Z" fill="white"/>
<path d="M152.659 367.998C143.045 368.145 136.126 361.157 136.126 349.095V329.971H148.07V349.095C148.07 354.685 151.202 358.289 156.446 358.142C161.762 358.068 164.967 354.17 164.967 348.359V329.971H177.348V367.262H165.477V358.436C164.093 364.982 157.975 367.924 152.659 367.998Z" fill="white"/>
<path d="M193.389 367.262H180.863V329.971H192.807V339.018C194.773 330.706 204.969 327.323 212.616 331.589L206.28 341.298C201.91 337.547 193.389 341.224 193.389 348.653V367.262Z" fill="white"/>
<path d="M230.927 367.998C219.638 367.998 210.025 360.422 209.952 348.8C209.806 336.811 219.201 329.235 230.927 329.235C242.871 329.235 252.12 336.811 251.975 348.8C251.902 360.275 243.235 367.998 230.927 367.998ZM230.854 358.142C236.171 358.142 240.104 354.17 240.104 348.727C240.104 343.357 236.316 339.018 230.854 339.018C225.61 339.018 221.823 343.21 221.823 348.727C221.823 354.023 225.61 358.142 230.854 358.142Z" fill="white"/>
<path d="M267.852 367.262H255.471V329.971H267.342V338.576C268.58 332.545 274.552 329.309 279.796 329.235C286.351 329.161 291.157 332.471 293.634 338.65C296.183 332.618 302.082 329.088 307.981 329.235C317.376 329.382 324.295 336.076 324.295 348.138V367.262H312.351V348.138C312.351 342.622 309.219 338.944 304.121 339.018C298.95 339.165 296.11 342.622 296.11 348.212V367.262H284.166V348.138C284.166 342.548 281.034 338.871 276.009 339.018C271.129 339.165 267.925 342.99 267.925 348.065L267.852 367.262Z" fill="white"/>
<g clip-path="url(#clip0_137_4)">
<path d="M326.001 266.171C325.879 265.94 322.807 266.094 322.403 266.071C321.168 266.002 319.941 265.894 318.713 265.755C316.296 265.478 313.895 265.062 311.524 264.5C306.889 263.415 302.376 261.79 298.091 259.68C289.682 255.53 282.219 249.494 276.364 242.126C273.009 237.906 270.539 233.21 267.993 228.482C266.003 224.779 200.074 102.281 199.998 102.15L152.662 190.116C149.338 197.092 147.486 204.876 147.486 213.114C147.486 220.128 148.835 226.796 151.275 232.917C159.028 252.42 177.912 266.163 199.998 266.163H199.151C167.78 266.163 140.96 246.599 129.974 218.904C126.49 210.242 124.6 200.764 124.6 190.84C124.6 179.883 126.917 169.466 131.103 160.057V160.034L199.998 32C199.998 32 325.994 266.163 325.994 266.171H326.001Z" fill="url(#paint0_linear_137_4)"/>
<path d="M199.15 266.171H74L131.101 160.064C126.916 169.481 124.598 179.891 124.598 190.847C124.598 200.771 126.489 210.249 129.973 218.911C140.966 246.606 167.786 266.171 199.15 266.171Z" fill="url(#paint1_linear_137_4)"/>
</g>
<defs>
<linearGradient id="paint0_linear_137_4" x1="225.303" y1="32" x2="225.303" y2="266.168" gradientUnits="userSpaceOnUse">
<stop offset="0.24" stop-color="white"/>
<stop offset="0.682266" stop-color="#BBBBBB"/>
</linearGradient>
<linearGradient id="paint1_linear_137_4" x1="136.577" y1="160.064" x2="136.577" y2="266.169" gradientUnits="userSpaceOnUse">
<stop offset="0.24" stop-color="white"/>
<stop offset="0.682266" stop-color="#BBBBBB"/>
</linearGradient>
<clipPath id="clip0_137_4">
<rect width="252" height="234.171" fill="white" transform="translate(74 32)"/>
</clipPath>
</defs>
</svg>
