<svg width="196" height="70" viewBox="0 0 196 70" fill="none" xmlns="http://www.w3.org/2000/svg">
<rect width="196" height="70" rx="16.8" fill="white"/>
<path d="M65.6911 25.2512H68.2671V27.2672C67.6091 27.7712 66.6991 28.0652 65.8871 28.0652C63.9551 28.0652 62.3311 26.3852 62.3311 24.3832C62.3311 22.3952 63.9551 20.7152 65.8871 20.7152C66.8811 20.7152 68.0151 21.1632 68.6731 21.8772L69.6671 20.9252C68.7571 19.9872 67.2451 19.4132 65.8871 19.4132C63.1851 19.4132 60.8751 21.6812 60.8751 24.3832C60.8751 27.0852 63.1851 29.3672 65.8871 29.3672C67.2451 29.3672 68.7571 28.7792 69.6671 27.8552V24.0192H65.6911V25.2512ZM74.9471 28.1352C73.7011 28.1352 72.8191 27.2672 72.6371 26.0632H78.3351C78.3351 23.4732 77.0611 21.7932 74.8491 21.7932C72.8471 21.7932 71.2371 23.3892 71.2371 25.5592C71.2371 27.7852 72.9451 29.3672 74.9611 29.3672C75.9831 29.3672 77.2431 28.9332 77.8871 28.2472L77.0191 27.3512C76.5851 27.7992 75.7031 28.1352 74.9471 28.1352ZM74.9051 23.0252C76.1511 23.0252 76.8371 23.8372 76.9911 24.9572H72.6511C72.8751 23.7812 73.7851 23.0252 74.9051 23.0252ZM83.3296 27.8972C83.1756 28.0512 82.8956 28.1632 82.5876 28.1632C82.1816 28.1632 81.8456 27.7992 81.8456 27.2952V23.1372H83.5536V21.9612H81.8456V19.9732H80.4876V21.9612H79.3956V23.1372H80.4876V27.3932C80.4876 28.5552 81.2716 29.3672 82.3916 29.3672C82.9096 29.3672 83.4416 29.1712 83.8336 28.8492L83.3296 27.8972ZM89.9381 20.7572C90.3861 20.7572 90.7641 20.3652 90.7641 19.9172C90.7641 19.4832 90.3861 19.0912 89.9381 19.0912C89.4621 19.0912 89.0981 19.4832 89.0981 19.9172C89.0981 20.3652 89.4621 20.7572 89.9381 20.7572ZM89.2381 29.1992H90.6241V21.9612H89.2381V29.1992ZM96.0171 27.8972C95.8631 28.0512 95.5831 28.1632 95.2751 28.1632C94.8691 28.1632 94.5331 27.7992 94.5331 27.2952V23.1372H96.2411V21.9612H94.5331V19.9732H93.1751V21.9612H92.0831V23.1372H93.1751V27.3932C93.1751 28.5552 93.9591 29.3672 95.0791 29.3672C95.5971 29.3672 96.1291 29.1712 96.5211 28.8492L96.0171 27.8972ZM106.602 29.3672C109.304 29.3672 111.572 27.0852 111.572 24.3832C111.572 21.6812 109.304 19.4132 106.602 19.4132C103.9 19.4132 101.604 21.6812 101.604 24.3832C101.604 27.0852 103.9 29.3672 106.602 29.3672ZM106.602 28.0652C104.684 28.0652 103.06 26.3852 103.06 24.3832C103.06 22.3952 104.684 20.7152 106.602 20.7152C108.52 20.7152 110.13 22.3952 110.13 24.3832C110.13 26.3852 108.52 28.0652 106.602 28.0652ZM116.942 21.7932C115.962 21.7932 115.08 22.2972 114.646 23.0112V21.9612H113.26V29.1992H114.646V24.5092C114.758 23.6552 115.626 22.9972 116.634 22.9972C117.614 22.9972 118.3 23.7532 118.3 24.8312V29.1992H119.658V24.5932C119.658 22.9552 118.538 21.7932 116.942 21.7932Z" fill="#282828"/>
<path d="M67.7099 42.8876H70.8459V44.9456C70.0815 45.4944 69.1407 45.808 68.2195 45.808C65.9263 45.808 63.9859 43.8088 63.9859 41.4568C63.9859 39.1244 65.9263 37.1252 68.2195 37.1252C69.4543 37.1252 70.7675 37.7132 71.5711 38.6344L73.6683 36.7528C72.3159 35.3416 70.2383 34.4988 68.2195 34.4988C64.3191 34.4988 61.0067 37.674 61.0067 41.4568C61.0067 45.2396 64.3191 48.4344 68.2195 48.4344C70.2383 48.4344 72.3159 47.5916 73.6683 46.1804V40.6336H67.7099V42.8876ZM81.0019 48.4344C84.0007 48.4344 86.5095 46.004 86.5095 43.1228C86.5095 40.2416 84.0007 37.8308 81.0019 37.8308C77.9835 37.8308 75.4551 40.2416 75.4551 43.1228C75.4551 46.004 77.9835 48.4344 81.0019 48.4344ZM81.0019 46.0236C79.4731 46.0236 78.1991 44.6908 78.1991 43.1228C78.1991 41.5548 79.4731 40.2416 81.0019 40.2416C82.5111 40.2416 83.7851 41.5548 83.7851 43.1228C83.7851 44.6908 82.5111 46.0236 81.0019 46.0236ZM93.4242 48.4344C96.423 48.4344 98.9318 46.004 98.9318 43.1228C98.9318 40.2416 96.423 37.8308 93.4242 37.8308C90.4058 37.8308 87.8774 40.2416 87.8774 43.1228C87.8774 46.004 90.4058 48.4344 93.4242 48.4344ZM93.4242 46.0236C91.8954 46.0236 90.6214 44.6908 90.6214 43.1228C90.6214 41.5548 91.8954 40.2416 93.4242 40.2416C94.9334 40.2416 96.2074 41.5548 96.2074 43.1228C96.2074 44.6908 94.9334 46.0236 93.4242 46.0236ZM108.198 38.066V39.438C107.512 38.4776 106.219 37.8308 104.847 37.8308C102.299 37.8308 100.358 39.8104 100.358 42.6328C100.358 45.4552 102.299 47.4544 104.847 47.4544C106.18 47.4544 107.395 46.8664 108.198 45.8864V47.0036C108.198 48.3168 107.022 49.1596 105.18 49.1596C104.004 49.1596 102.828 48.7872 102.162 48.1992L101.162 50.218C102.162 51.002 103.847 51.5704 105.631 51.5704C108.826 51.5704 111.08 49.728 111.08 47.1212V38.066H108.198ZM105.748 45.0436C104.318 45.0436 103.298 44.044 103.298 42.6328C103.298 41.2216 104.318 40.2416 105.748 40.2416C107.179 40.2416 108.198 41.2216 108.198 42.6328C108.198 44.044 107.179 45.0436 105.748 45.0436ZM113.597 48.1992H116.458V34.4988H113.597V48.1992ZM123.738 45.906C122.543 45.906 121.661 45.1612 121.328 44.0636H128.638C128.638 40.2416 126.776 37.8308 123.601 37.8308C120.642 37.8308 118.388 40.0456 118.388 43.1032C118.388 46.2196 120.74 48.4344 123.758 48.4344C125.248 48.4344 126.992 47.8072 127.894 46.8664L126.071 45.0044C125.522 45.5336 124.542 45.906 123.738 45.906ZM123.719 40.3592C124.875 40.3592 125.62 41.006 125.894 42.0056H121.367C121.739 40.9864 122.641 40.3592 123.719 40.3592ZM136.127 48.1992H139.008V43.8284H142.183C145.104 43.8284 147.26 41.9468 147.26 39.2812C147.26 36.6156 145.104 34.734 142.183 34.734H136.127V48.1992ZM139.008 41.1824V37.38H141.87C143.301 37.38 144.281 38.1248 144.281 39.2812C144.281 40.4376 143.301 41.1824 141.87 41.1824H139.008ZM148.988 48.1992H151.849V34.4988H148.988V48.1992ZM158.875 37.8308C157.463 37.8308 156.072 38.2228 154.641 38.948L155.601 40.8492C156.405 40.4376 157.287 40.124 158.228 40.124C159.894 40.124 160.56 41.0648 160.56 42.1428V42.3388C159.698 42.0056 158.796 41.8292 157.973 41.8292C155.621 41.8292 153.759 43.2012 153.759 45.2004C153.759 47.1408 155.425 48.4344 157.581 48.4344C158.679 48.4344 159.835 48.0032 160.56 47.18V48.1992H163.324V42.1428C163.324 39.4968 161.521 37.8308 158.875 37.8308ZM158.228 46.4548C157.248 46.4548 156.523 45.9452 156.523 45.122C156.523 44.2988 157.346 43.6912 158.385 43.6912C159.169 43.6912 159.913 43.8284 160.56 44.0636V45.0044C160.364 45.9452 159.325 46.4548 158.228 46.4548ZM168.048 51.7272C169.636 51.7272 170.93 50.6884 171.694 48.7088L175.849 38.066H172.929L170.4 45.1808L167.735 38.066H164.775L168.989 48.2972L168.636 49.042C168.421 49.4144 167.99 49.5908 167.441 49.5908C167.108 49.5908 166.598 49.4144 166.108 49.14L165.5 51.1C166.186 51.4724 167.206 51.7272 168.048 51.7272Z" fill="#282828"/>
<g filter="url(#filter0_ii_413_10695)">
<path d="M18.8513 17.3561C18.4439 17.7873 18.2031 18.4565 18.2031 19.3231V50.2855C18.2031 51.1535 18.4439 51.8213 18.8513 52.2525L18.9549 52.3533L36.2995 35.0087V34.8043V34.5999L18.9549 17.2539L18.8513 17.3561Z" fill="url(#paint0_linear_413_10695)"/>
<path d="M42.0853 40.7926L36.3047 35.0092V34.8048V34.6004L42.0867 28.8184L42.2169 28.8926L49.0671 32.7846C51.0229 33.8962 51.0229 35.7148 49.0671 36.8278L42.2169 40.7198L42.0853 40.7926Z" fill="url(#paint1_linear_413_10695)"/>
<g filter="url(#filter1_i_413_10695)">
<path d="M42.212 40.7183L36.2984 34.8047L18.8516 52.2529C19.4956 52.9361 20.561 53.0201 21.7608 52.3397L42.212 40.7183Z" fill="url(#paint2_linear_413_10695)"/>
</g>
<path d="M42.212 28.8913L21.7608 17.2713C20.561 16.5895 19.4956 16.6749 18.8516 17.3581L36.2998 34.8063L42.212 28.8913Z" fill="url(#paint3_linear_413_10695)"/>
</g>
<defs>
<filter id="filter0_ii_413_10695" x="18.2031" y="16.8008" width="32.3311" height="36.0088" filterUnits="userSpaceOnUse" color-interpolation-filters="sRGB">
<feFlood flood-opacity="0" result="BackgroundImageFix"/>
<feBlend mode="normal" in="SourceGraphic" in2="BackgroundImageFix" result="shape"/>
<feColorMatrix in="SourceAlpha" type="matrix" values="0 0 0 0 0 0 0 0 0 0 0 0 0 0 0 0 0 0 127 0" result="hardAlpha"/>
<feOffset dy="-0.21"/>
<feComposite in2="hardAlpha" operator="arithmetic" k2="-1" k3="1"/>
<feColorMatrix type="matrix" values="0 0 0 0 0 0 0 0 0 0 0 0 0 0 0 0 0 0 0.12 0"/>
<feBlend mode="normal" in2="shape" result="effect1_innerShadow_413_10695"/>
<feColorMatrix in="SourceAlpha" type="matrix" values="0 0 0 0 0 0 0 0 0 0 0 0 0 0 0 0 0 0 127 0" result="hardAlpha"/>
<feOffset dy="0.21"/>
<feComposite in2="hardAlpha" operator="arithmetic" k2="-1" k3="1"/>
<feColorMatrix type="matrix" values="0 0 0 0 1 0 0 0 0 1 0 0 0 0 1 0 0 0 0.25 0"/>
<feBlend mode="normal" in2="effect1_innerShadow_413_10695" result="effect2_innerShadow_413_10695"/>
</filter>
<filter id="filter1_i_413_10695" x="18.8516" y="34.8047" width="23.3604" height="18.0049" filterUnits="userSpaceOnUse" color-interpolation-filters="sRGB">
<feFlood flood-opacity="0" result="BackgroundImageFix"/>
<feBlend mode="normal" in="SourceGraphic" in2="BackgroundImageFix" result="shape"/>
<feColorMatrix in="SourceAlpha" type="matrix" values="0 0 0 0 0 0 0 0 0 0 0 0 0 0 0 0 0 0 127 0" result="hardAlpha"/>
<feOffset dy="-0.21"/>
<feComposite in2="hardAlpha" operator="arithmetic" k2="-1" k3="1"/>
<feColorMatrix type="matrix" values="0 0 0 0 0 0 0 0 0 0 0 0 0 0 0 0 0 0 0.08 0"/>
<feBlend mode="normal" in2="shape" result="effect1_innerShadow_413_10695"/>
</filter>
<linearGradient id="paint0_linear_413_10695" x1="34.762" y1="18.9955" x2="11.2672" y2="42.4903" gradientUnits="userSpaceOnUse">
<stop stop-color="#00A0FF"/>
<stop offset="0.0066" stop-color="#00A1FF"/>
<stop offset="0.2601" stop-color="#00BEFF"/>
<stop offset="0.5122" stop-color="#00D2FF"/>
<stop offset="0.7604" stop-color="#00DFFF"/>
<stop offset="1" stop-color="#00E3FF"/>
</linearGradient>
<linearGradient id="paint1_linear_413_10695" x1="51.613" y1="34.8048" x2="17.7387" y2="34.8048" gradientUnits="userSpaceOnUse">
<stop stop-color="#FFE000"/>
<stop offset="0.4087" stop-color="#FFBD00"/>
<stop offset="0.7754" stop-color="#FFA500"/>
<stop offset="1" stop-color="#FF9C00"/>
</linearGradient>
<linearGradient id="paint2_linear_413_10695" x1="39.0005" y1="38.0161" x2="7.13861" y2="69.878" gradientUnits="userSpaceOnUse">
<stop stop-color="#FF3A44"/>
<stop offset="1" stop-color="#C31162"/>
</linearGradient>
<linearGradient id="paint3_linear_413_10695" x1="14.4575" y1="7.05101" x2="28.6847" y2="21.2782" gradientUnits="userSpaceOnUse">
<stop stop-color="#32A071"/>
<stop offset="0.0685" stop-color="#2DA771"/>
<stop offset="0.4762" stop-color="#15CF74"/>
<stop offset="0.8009" stop-color="#06E775"/>
<stop offset="1" stop-color="#00F076"/>
</linearGradient>
</defs>
</svg>
