<svg width="40" height="40" viewBox="0 0 40 40" fill="none" xmlns="http://www.w3.org/2000/svg">
<rect width="40" height="40" rx="20" fill="white"/>
<path d="M26.707 20.7819C26.7315 18.884 27.7507 17.0881 29.3677 16.094C28.3476 14.6372 26.639 13.7135 24.8614 13.6579C22.9655 13.4588 21.1274 14.7924 20.1613 14.7924C19.1765 14.7924 17.6889 13.6776 16.0871 13.7106C13.9992 13.778 12.0527 14.9651 11.0369 16.7905C8.85332 20.571 10.4821 26.1272 12.5738 29.1831C13.6203 30.6795 14.8434 32.351 16.4438 32.2917C18.0098 32.2268 18.5947 31.2931 20.4851 31.2931C22.358 31.2931 22.9067 32.2917 24.5396 32.254C26.22 32.2268 27.2788 30.751 28.2886 29.2404C29.0405 28.1742 29.6191 26.9958 30.003 25.7488C28.0281 24.9136 26.7093 22.9261 26.707 20.7819Z" fill="#282828"/>
<path d="M23.6228 11.6481C24.5391 10.5482 24.9905 9.13442 24.8812 7.70703C23.4813 7.85406 22.1882 8.52309 21.2596 9.58082C20.3515 10.6143 19.879 12.0032 19.9683 13.376C21.3686 13.3904 22.7453 12.7395 23.6228 11.6481Z" fill="#282828"/>
</svg>
