<svg width="40" height="40" viewBox="0 0 40 40" fill="none" xmlns="http://www.w3.org/2000/svg">
<rect width="40" height="40" rx="20" fill="white"/>
<g filter="url(#filter0_ii_496_35908)">
<path d="M10.2284 9.01453C9.9719 9.28597 9.82031 9.70724 9.82031 10.2528V29.7437C9.82031 30.2901 9.9719 30.7105 10.2284 30.9819L10.2936 31.0454L21.2121 20.1269V19.9982V19.8696L10.2936 8.9502L10.2284 9.01453Z" fill="url(#paint0_linear_496_35908)"/>
<path d="M24.8577 23.7692L21.2187 20.1286V19.9999V19.8712L24.8585 16.2314L24.9405 16.2782L29.2527 18.7282C30.4839 19.4279 30.4839 20.5728 29.2527 21.2734L24.9405 23.7234L24.8577 23.7692Z" fill="url(#paint1_linear_496_35908)"/>
<g filter="url(#filter1_i_496_35908)">
<path d="M24.9398 23.7217L21.2172 19.999L10.2344 30.9827C10.6398 31.4128 11.3104 31.4657 12.0657 31.0374L24.9398 23.7217Z" fill="url(#paint2_linear_496_35908)"/>
</g>
<path d="M24.9398 16.277L12.0657 8.9622C11.3104 8.533 10.6398 8.58676 10.2344 9.01684L21.2181 20.0006L24.9398 16.277Z" fill="url(#paint3_linear_496_35908)"/>
</g>
<defs>
<filter id="filter0_ii_496_35908" x="9.82031" y="8.66602" width="20.3594" height="22.667" filterUnits="userSpaceOnUse" color-interpolation-filters="sRGB">
<feFlood flood-opacity="0" result="BackgroundImageFix"/>
<feBlend mode="normal" in="SourceGraphic" in2="BackgroundImageFix" result="shape"/>
<feColorMatrix in="SourceAlpha" type="matrix" values="0 0 0 0 0 0 0 0 0 0 0 0 0 0 0 0 0 0 127 0" result="hardAlpha"/>
<feOffset dy="-0.0857143"/>
<feComposite in2="hardAlpha" operator="arithmetic" k2="-1" k3="1"/>
<feColorMatrix type="matrix" values="0 0 0 0 0 0 0 0 0 0 0 0 0 0 0 0 0 0 0.12 0"/>
<feBlend mode="normal" in2="shape" result="effect1_innerShadow_496_35908"/>
<feColorMatrix in="SourceAlpha" type="matrix" values="0 0 0 0 0 0 0 0 0 0 0 0 0 0 0 0 0 0 127 0" result="hardAlpha"/>
<feOffset dy="0.0857143"/>
<feComposite in2="hardAlpha" operator="arithmetic" k2="-1" k3="1"/>
<feColorMatrix type="matrix" values="0 0 0 0 1 0 0 0 0 1 0 0 0 0 1 0 0 0 0.25 0"/>
<feBlend mode="normal" in2="effect1_innerShadow_496_35908" result="effect2_innerShadow_496_35908"/>
</filter>
<filter id="filter1_i_496_35908" x="10.2344" y="19.999" width="14.7031" height="11.334" filterUnits="userSpaceOnUse" color-interpolation-filters="sRGB">
<feFlood flood-opacity="0" result="BackgroundImageFix"/>
<feBlend mode="normal" in="SourceGraphic" in2="BackgroundImageFix" result="shape"/>
<feColorMatrix in="SourceAlpha" type="matrix" values="0 0 0 0 0 0 0 0 0 0 0 0 0 0 0 0 0 0 127 0" result="hardAlpha"/>
<feOffset dy="-0.0857143"/>
<feComposite in2="hardAlpha" operator="arithmetic" k2="-1" k3="1"/>
<feColorMatrix type="matrix" values="0 0 0 0 0 0 0 0 0 0 0 0 0 0 0 0 0 0 0.08 0"/>
<feBlend mode="normal" in2="shape" result="effect1_innerShadow_496_35908"/>
</filter>
<linearGradient id="paint0_linear_496_35908" x1="20.2442" y1="10.0465" x2="5.45415" y2="24.8366" gradientUnits="userSpaceOnUse">
<stop stop-color="#00A0FF"/>
<stop offset="0.0066" stop-color="#00A1FF"/>
<stop offset="0.2601" stop-color="#00BEFF"/>
<stop offset="0.5122" stop-color="#00D2FF"/>
<stop offset="0.7604" stop-color="#00DFFF"/>
<stop offset="1" stop-color="#00E3FF"/>
</linearGradient>
<linearGradient id="paint1_linear_496_35908" x1="30.8554" y1="19.9999" x2="9.53141" y2="19.9999" gradientUnits="userSpaceOnUse">
<stop stop-color="#FFE000"/>
<stop offset="0.4087" stop-color="#FFBD00"/>
<stop offset="0.7754" stop-color="#FFA500"/>
<stop offset="1" stop-color="#FF9C00"/>
</linearGradient>
<linearGradient id="paint2_linear_496_35908" x1="22.9182" y1="22.0206" x2="2.86103" y2="42.0778" gradientUnits="userSpaceOnUse">
<stop stop-color="#FF3A44"/>
<stop offset="1" stop-color="#C31162"/>
</linearGradient>
<linearGradient id="paint3_linear_496_35908" x1="7.46831" y1="2.5285" x2="16.4244" y2="11.4846" gradientUnits="userSpaceOnUse">
<stop stop-color="#32A071"/>
<stop offset="0.0685" stop-color="#2DA771"/>
<stop offset="0.4762" stop-color="#15CF74"/>
<stop offset="0.8009" stop-color="#06E775"/>
<stop offset="1" stop-color="#00F076"/>
</linearGradient>
</defs>
</svg>
